<?xml version="1.0" encoding="UTF-8"?>
<svg version="1.1" xmlns="http://www.w3.org/2000/svg" width="527" height="474">
<path d="M0 0 C1.24534232 0.00092179 2.49068464 0.00184359 3.77376461 0.00279331 C4.46473938 0.00193889 5.15571416 0.00108446 5.86762756 0.00020415 C8.20004874 -0.00145264 10.53239917 0.00407393 12.8648138 0.00952244 C14.52996475 0.00980429 16.19511582 0.00964661 17.86026669 0.00907993 C22.3951976 0.00879189 26.9301023 0.01468967 31.46502709 0.02165389 C36.19895023 0.02788635 40.9328739 0.02849114 45.6668005 0.0296793 C54.63763754 0.03279293 63.60846245 0.04100675 72.57929415 0.05102879 C82.78952046 0.06218893 92.99974733 0.06770012 103.20997822 0.07272422 C124.21919777 0.08318934 145.22840639 0.1007894 166.23761654 0.12304783 C167.98121959 4.62797536 169.57717492 8.97432401 170.62457943 13.697999 C170.86623333 14.76488453 171.10788723 15.83177006 171.35686398 16.93098545 C171.61786388 18.10167072 171.87886379 19.272356 172.14777279 20.47851658 C172.76334583 23.17637535 173.3812024 25.8735744 174.00372982 28.56982517 C174.17390716 29.30707105 174.34408449 30.04431692 174.51941872 30.80390358 C176.70571972 40.2167482 179.04557753 49.59187851 181.37553692 58.96997547 C182.17431873 62.18634552 182.97092106 65.40324767 183.76682186 68.62033176 C187.05833726 81.92341039 187.05833726 81.92341039 190.36823177 95.22192478 C191.74048197 100.72022572 193.1025162 106.22096962 194.45781803 111.72347164 C194.97037127 113.79633545 195.48665371 115.86828111 196.00687122 117.93923473 C196.7294669 120.81762252 197.438949 123.69895654 198.14557552 126.58129978 C198.35899593 127.41818333 198.57241634 128.25506687 198.79230404 129.11731052 C200.75209163 137.22525969 200.73502776 144.2419791 198.71906185 152.37085056 C198.55571692 153.04187589 198.392372 153.71290121 198.22407722 154.40426064 C197.68108773 156.62425957 197.12344384 158.84029722 196.56574154 161.05664158 C196.17077126 162.65915457 195.77675912 164.26190397 195.38362789 165.86486912 C194.31836168 170.19778892 193.24060117 174.52751278 192.16065502 178.8567934 C191.0311531 183.39426919 189.91340323 187.93463528 188.79498959 192.47485447 C187.39472695 198.15635124 185.99338102 203.83757124 184.58702755 209.51756382 C181.19146634 223.23288534 177.83054427 236.95635691 174.49152279 250.68554783 C174.14524523 252.10890792 174.14524523 252.10890792 173.79197216 253.56102276 C172.6542372 258.23770921 171.51688163 262.9144878 170.37982845 267.59134007 C168.45111862 275.52436068 166.52234971 283.45736376 164.58855152 291.38914585 C164.20467311 292.96469168 163.82126747 294.54035278 163.43836308 296.1161356 C162.91662868 298.2631727 162.39335546 300.40982903 161.86969662 302.55639744 C161.57694347 303.759128 161.28419033 304.96185856 160.98256588 306.2010355 C160.23761654 309.12304783 160.23761654 309.12304783 159.23761654 312.12304783 C160.13347469 312.25151096 160.13347469 312.25151096 161.04743099 312.38256931 C171.23237281 313.95834592 181.25996252 316.2455973 191.31403255 318.49145603 C194.45475912 319.19216117 197.59707347 319.8854055 200.73956966 320.57812595 C202.73250679 321.02104196 204.72534899 321.46438539 206.71808529 321.90820408 C207.65959942 322.11550648 208.60111355 322.32280888 209.57115841 322.53639317 C210.43328442 322.73006977 211.29541042 322.92374638 212.18366146 323.12329197 C212.94466656 323.29268787 213.70567165 323.46208378 214.48973751 323.63661289 C216.23761654 324.12304783 216.23761654 324.12304783 217.23761654 325.12304783 C217.5683726 330.59811622 216.6926432 335.26523139 215.30011654 340.49804783 C215.1177142 341.22121189 214.93531185 341.94437595 214.74738216 342.68945408 C213.38321942 347.97744495 213.38321942 347.97744495 212.23761654 349.12304783 C204.91451368 348.96378254 197.68310338 347.33279797 190.54230404 345.83789158 C189.46884731 345.61734608 188.39539059 345.39680058 187.28940487 345.16957188 C183.89614624 344.47129269 180.50438187 343.7660408 177.11261654 343.06054783 C174.79760796 342.58287079 172.48250463 342.10565273 170.16730404 341.6289072 C164.52296867 340.46559079 158.87983994 339.2965623 153.23761654 338.12304783 C153.09138851 338.6881406 152.94516048 339.25323338 152.7945013 339.83545017 C152.13201789 342.39025532 151.46611 344.94415555 150.80011654 347.49804783 C150.57001888 348.38750095 150.33992123 349.27695408 150.10285091 350.19336033 C149.88048763 351.04414158 149.65812435 351.89492283 149.42902279 352.77148533 C149.22478695 353.55700779 149.02055111 354.34253025 148.8101263 355.15185642 C148.23761654 357.12304783 148.23761654 357.12304783 147.23761654 359.12304783 C140.95279719 358.63960019 140.95279719 358.63960019 138.17975521 356.6367197 C135.43426194 353.08328177 134.54806167 349.45745566 133.41339779 345.15429783 C133.16197521 344.23733128 132.91055264 343.32036472 132.65151119 342.37561131 C129.61776558 331.13094252 126.96672606 319.78812422 124.31851864 308.4478159 C123.39965122 304.51402754 122.47469097 300.58171939 121.54743099 296.6499033 C121.23393901 295.32040505 120.92044719 293.99090675 120.60695553 292.66140842 C120.45276968 292.00758308 120.29858383 291.35375774 120.13972569 290.68011951 C119.67789278 288.72076373 119.21665541 286.76126869 118.75560665 284.80172825 C116.51332725 275.27530221 114.24457535 265.75596923 111.92511654 256.24804783 C111.76284573 255.58224705 111.60057491 254.91644627 111.4333868 254.2304697 C108.67083513 242.90586954 105.87502255 231.58940796 103.08527279 220.27148533 C102.89844622 219.51346748 102.71161964 218.75544964 102.51913166 217.97446156 C100.61813553 210.26159923 98.71660194 202.54887179 96.81149483 194.83702374 C94.61228534 185.9342999 92.42135542 177.02957862 90.23761654 168.12304783 C89.96473812 167.01332615 89.6918597 165.90360447 89.41071224 164.76025486 C88.69698341 161.85112074 87.98940757 158.94057798 87.28449154 156.02929783 C86.98674831 154.82001621 86.98674831 154.82001621 86.68299007 153.58630466 C86.50346798 152.83852757 86.32394588 152.09075047 86.13898373 151.32031345 C85.98725704 150.69564182 85.83553036 150.07097019 85.67920589 149.42736912 C84.45745036 143.05194985 84.09119319 136.8539799 84.10822201 130.38379002 C84.10559353 129.13346485 84.10559353 129.13346485 84.10291195 127.85788059 C84.0985441 125.12853958 84.10141238 122.39926439 84.10480404 119.66992283 C84.1041298 117.76279787 84.10315877 115.85567299 84.10190487 113.94854832 C84.10043499 109.96438874 84.10256057 105.98025166 84.10724545 101.9960947 C84.11295785 96.88941132 84.1096497 91.78278032 84.10367298 86.67609882 C84.10006144 82.74362893 84.10120843 78.81117148 84.10380077 74.87870121 C84.10446759 72.99523252 84.10365017 71.1117627 84.10132122 69.22829533 C84.0987833 66.60040882 84.10265073 63.97260766 84.10822201 61.34472752 C84.10619778 60.56751347 84.10417355 59.79029942 84.10208797 58.98953342 C84.11554642 55.56479275 84.15438534 52.39565737 85.23761654 49.12304783 C102.37317172 45.1442555 119.51264741 41.19839516 136.73761654 37.62304783 C137.95795589 37.36829685 139.17829525 37.11354588 140.43561459 36.85107517 C141.55621273 36.62113865 142.67681087 36.39120213 143.83136654 36.15429783 C144.80783138 35.95384861 145.78429623 35.75339939 146.79035091 35.54687595 C149.23761654 35.12304783 149.23761654 35.12304783 152.23761654 35.12304783 C152.23761654 32.15304783 152.23761654 29.18304783 152.23761654 26.12304783 C151.55312435 25.85750095 150.86863216 25.59195408 150.16339779 25.31836033 C146.86925783 23.97255682 143.65213782 22.49747186 140.42511654 20.99804783 C139.26367123 20.4592197 138.10222591 19.92039158 136.90558529 19.36523533 C136.0251556 18.95531345 135.14472591 18.54539158 134.23761654 18.12304783 C133.57761654 20.10304783 132.91761654 22.08304783 132.23761654 24.12304783 C133.28949154 24.27773533 133.28949154 24.27773533 134.36261654 24.43554783 C137.62899301 25.21663786 140.28480174 26.54363526 143.23761654 28.12304783 C143.23761654 29.11304783 143.23761654 30.10304783 143.23761654 31.12304783 C128.89428133 35.07502025 114.28094403 37.72695791 99.6682806 40.45996189 C96.75681494 41.02269607 93.87259114 41.6534273 90.97980404 42.30273533 C81.3605811 44.18397529 72.36602938 42.85915708 62.89386654 40.78711033 C61.76235165 40.54769718 60.63083675 40.30828403 59.46503353 40.06161594 C57.09414425 39.5574691 54.72439698 39.04792388 52.3557806 38.53320408 C48.72281177 37.74483513 45.08615372 36.97567188 41.44855404 36.20898533 C39.13841855 35.7153138 36.82851387 35.22056071 34.51886654 34.72461033 C33.43142147 34.49432133 32.3439764 34.26403233 31.22357845 34.02676487 C30.21823055 33.80668766 29.21288265 33.58661045 28.17706966 33.35986423 C27.29313534 33.16889164 26.40920101 32.97791904 25.4984808 32.7811594 C23.23761654 32.12304783 23.23761654 32.12304783 20.23761654 30.12304783 C20.73261654 28.63804783 20.73261654 28.63804783 21.23761654 27.12304783 C23.50901236 26.01355833 25.82249333 25.21823351 28.20636654 24.38086033 C30.51348614 23.26381751 30.51348614 23.26381751 31.01886654 20.49023533 C31.12714779 19.31847752 31.12714779 19.31847752 31.23761654 18.12304783 C27.5478179 19.39819883 23.89090932 20.7470701 20.23761654 22.12304783 C19.42035091 22.40019627 18.60308529 22.6773447 17.76105404 22.96289158 C15.55177346 23.83455319 14.02824296 24.56117503 12.23761654 26.12304783 C11.61504361 28.33846565 11.61504361 28.33846565 11.52667904 30.76757908 C11.46432064 31.58202488 11.40196224 32.39647068 11.3377142 33.23559666 C11.30468197 33.85845554 11.27164974 34.48131443 11.23761654 35.12304783 C11.8262347 35.23261814 12.41485287 35.34218845 13.02130795 35.45507908 C27.07635573 38.08488836 41.09873521 40.86650337 55.09839535 43.776124 C56.81541341 44.13224145 58.53290461 44.48608532 60.25086117 44.83764744 C62.68405952 45.3363852 65.11529768 45.84376986 67.54621029 46.35351658 C68.27951061 46.50233784 69.01281094 46.6511591 69.76833248 46.80449009 C73.13324844 47.51987892 75.33620121 48.18877094 78.23761654 50.12304783 C78.55052942 53.05241745 78.66771249 55.77226979 78.65753841 58.7058115 C78.66600796 59.59574802 78.6744775 60.48568455 78.6832037 61.40258884 C78.70672134 64.36554144 78.70759053 67.32797735 78.70636654 70.29101658 C78.71347202 72.3629842 78.72117159 74.43494987 78.72943783 76.50691319 C78.74292546 80.87095667 78.74443791 85.23481935 78.7385931 89.59887791 C78.73276884 95.12569795 78.76296184 100.65161747 78.80370998 106.17826462 C78.82991978 110.47270774 78.83243332 114.7669456 78.82881832 119.06145763 C78.83048656 121.09391908 78.83990122 123.1263925 78.85796261 125.15877438 C78.97594382 140.10921881 76.88227975 153.64282859 73.23761654 168.12304783 C72.91991086 169.45263017 72.60474303 170.7828238 72.29312801 172.11384678 C71.51641984 175.40082625 70.70909172 178.67844405 69.88996029 181.95507908 C69.59699566 183.13942036 69.30403103 184.32376163 69.00218868 185.54399204 C68.38206374 188.05016561 67.76059732 190.55600761 67.13782406 193.06152439 C65.46192908 199.80547965 63.79714017 206.55217534 62.13214779 213.29882908 C61.96443119 213.97801018 61.79671459 214.65719128 61.62391567 215.35695362 C58.71894482 227.12330634 55.8731207 238.90316771 53.06186581 250.6922617 C48.41242706 270.17960509 43.71613501 289.65599282 38.96191502 309.11804485 C38.00951592 313.01712743 37.05986471 316.91682458 36.11756039 320.81836033 C35.22960645 324.49417737 34.33336923 328.16787982 33.43104076 331.84019375 C33.09896748 333.19757288 32.76975725 334.5556563 32.44369793 335.91449261 C27.80064662 355.24071854 27.80064662 355.24071854 23.54669857 358.36488438 C20.30540684 359.89438741 18.67092868 360.26748521 15.23761654 359.12304783 C14.43805599 357.08178806 14.43805599 357.08178806 13.85089779 354.43164158 C13.63497982 353.4874033 13.41906185 352.54316502 13.19660091 351.57031345 C12.98326107 350.5770908 12.76992123 349.58386814 12.55011654 348.56054783 C12.32517513 347.56345798 12.10023373 346.56636814 11.86847591 345.53906345 C11.31310311 343.06942696 10.77008968 340.59770492 10.23761654 338.12304783 C9.60170086 338.26085667 8.96578518 338.3986655 8.31059933 338.54065037 C1.67735285 339.97665796 -4.95800277 341.40259038 -11.59465885 342.82275486 C-14.06949551 343.35371334 -16.54378745 343.88721757 -19.01751041 344.4233408 C-22.57819228 345.19457147 -26.14074813 345.95655351 -29.70378971 346.71679783 C-30.80509724 346.9574094 -31.90640476 347.19802097 -33.04108524 347.44592381 C-38.39184243 348.57838988 -43.29105364 349.42266016 -48.76238346 349.12304783 C-55.13206431 331.54272868 -55.13206431 331.54272868 -52.76238346 325.12304783 C-48.46595547 322.95395712 -43.72500165 322.08191565 -39.05925846 321.02929783 C-38.22203251 320.83710667 -37.38480656 320.6449155 -36.52221012 320.44690037 C-33.8531171 319.83516464 -31.1827816 319.22905802 -28.51238346 318.62304783 C-26.73235227 318.21585962 -24.95240346 317.8083111 -23.17253971 317.40039158 C-15.05268449 315.54223639 -15.05268449 315.54223639 -11.03081608 314.63745213 C-9.46121673 314.28151973 -7.8933508 313.917888 -6.32695866 313.54809666 C-5.53768986 313.36464695 -4.74842106 313.18119724 -3.93523502 312.99218845 C-3.22965458 312.82545628 -2.52407413 312.6587241 -1.79711246 312.48693943 C0.23761654 312.12304783 0.23761654 312.12304783 4.23761654 312.12304783 C3.87049809 310.87093258 3.87049809 310.87093258 3.4959631 309.59352207 C0.93651299 300.76460274 -1.37229359 291.8931239 -3.55535221 282.96289158 C-3.90597844 281.53698522 -4.25682946 280.11113413 -4.60788822 278.68533421 C-5.53424527 274.92009662 -6.4573488 271.15406906 -7.37965488 267.38783741 C-8.14778015 264.25286663 -8.91776579 261.11835403 -9.6877718 257.98384476 C-11.73443436 249.65236788 -13.77688725 241.31986543 -15.81664371 232.98669529 C-16.62936149 229.66648488 -17.44258365 226.34639868 -18.2560358 223.02636814 C-20.22489342 214.98683503 -22.18201057 206.94463552 -24.12029362 198.89767551 C-25.38288891 193.66605228 -26.66949475 188.44056205 -27.96080875 183.2159586 C-29.00169767 178.99535427 -30.03285113 174.77240314 -31.06249332 170.5490427 C-31.56376426 168.50192217 -32.06898196 166.45576332 -32.57848454 164.410676 C-33.287224 161.56340073 -33.98135757 158.71290974 -34.67253971 155.86132908 C-34.88452503 155.02442539 -35.09651035 154.18752171 -35.31491947 153.3252573 C-38.09770941 141.66979636 -36.04858579 131.73767122 -33.21160221 120.28711033 C-32.83681965 118.73893584 -32.46301686 117.19052388 -32.09012699 115.64189243 C-31.09530328 111.523069 -30.08639546 107.40782095 -29.07440281 103.29318714 C-28.02998895 99.03682777 -26.99842303 94.77735475 -25.96502018 90.5183115 C-23.58313416 80.71520518 -21.17789677 70.91791738 -18.76238346 61.12304783 C-18.59755215 60.45454556 -18.43272083 59.78604328 -18.26289463 59.09728336 C-15.33290162 47.21832017 -12.38299161 35.34434885 -9.37067509 23.48596287 C-8.43994828 19.8209225 -7.52193147 16.1533774 -6.62468815 12.47998142 C-6.44142979 11.73354877 -6.25817142 10.98711613 -6.06935978 10.21806431 C-5.72219036 8.80147685 -5.37782226 7.38419893 -5.03670597 5.9661417 C-3.61009428 0.16080833 -3.61009428 0.16080833 0 0 Z " fill="#434343" transform="translate(178.76238346099854,57.876952171325684)"/>
<path d="M0 0 C2.13010303 0.42301601 4.24145651 0.93972506 6.34375 1.484375 C7.03835327 1.66297058 7.73295654 1.84156616 8.4486084 2.02557373 C10.96769884 2.67639341 13.48389398 3.33773726 16 4 C17.00369629 4.26288818 18.00739258 4.52577637 19.04150391 4.79663086 C27.19806858 6.93369255 35.34936397 9.09045774 43.5 11.25 C45.98044248 11.90634927 48.46091104 12.56260003 50.94140625 13.21875 C56.96123836 14.81136502 62.98074815 16.40519341 69 18 C70.29978662 21.66912375 69.69768232 24.22801723 68.77514648 27.95947266 C68.47936203 29.17567291 68.18357758 30.39187317 67.87882996 31.64492798 C67.54306726 32.98467693 67.20715036 34.32438724 66.87109375 35.6640625 C66.52616449 37.06810279 66.18209288 38.47235402 65.83882141 39.87680054 C65.10154073 42.8858463 64.3585269 45.89339524 63.61096191 48.89990234 C62.42643317 53.66409505 61.25457202 58.43134496 60.08496094 63.19921875 C58.88832529 68.07474446 57.69088252 72.95006365 56.48892212 77.82427979 C53.15159654 91.35789039 49.86527252 104.90322422 46.60336304 118.45523071 C45.73966634 122.0429248 44.87455223 125.63027443 44.0090332 129.2175293 C41.36330395 140.18425581 38.72207637 151.15205812 36.0859375 162.12109375 C28.97882358 191.68980217 21.82868644 221.24797897 14.66500092 250.80302811 C13.89115535 253.9958445 13.11746411 257.18869824 12.34381104 260.38156128 C11.84265673 262.44960661 11.3414971 264.51765064 10.84033203 266.58569336 C10.5934923 267.60442504 10.34665257 268.62315672 10.09233284 269.67275906 C8.8638677 274.74135822 7.63357354 279.80950175 6.39956665 284.87675476 C5.91182589 286.88022432 5.42414474 288.88370839 4.93652344 290.88720703 C4.69615797 291.87479035 4.4557925 292.86237368 4.20814323 293.87988377 C2.68284699 300.15803624 1.17778182 306.44073455 -0.31450844 312.72681141 C-1.31525655 316.93716218 -2.32405677 321.14556197 -3.33395004 325.35372734 C-3.81074065 327.34981059 -4.28371624 329.34680934 -4.75268936 331.34474373 C-5.39821821 334.09348719 -6.05673002 336.83881153 -6.71826172 339.58374023 C-6.90565289 340.39705999 -7.09304405 341.21037975 -7.28611374 342.04834557 C-8.22261771 345.87724503 -8.88952101 348.50160733 -12 351 C-14.26171875 350.85546875 -14.26171875 350.85546875 -16.6875 350.1875 C-17.49574219 349.97480469 -18.30398438 349.76210938 -19.13671875 349.54296875 C-19.75160156 349.36378906 -20.36648438 349.18460937 -21 349 C-21.34556438 342.74528467 -20.04948115 337.28878869 -18.5 331.25 C-18.02827681 329.38095622 -17.55939614 327.51119206 -17.09375 325.640625 C-16.88427734 324.82110352 -16.67480469 324.00158203 -16.45898438 323.15722656 C-15.89594618 320.87853274 -15.89594618 320.87853274 -16 318 C-20.28308529 316.95322301 -24.56668374 315.90857751 -28.85079956 314.86602783 C-30.36301901 314.49796197 -31.87516545 314.129596 -33.38723755 313.76092529 C-43.78830608 311.22670169 -54.19804319 308.75643055 -64.67431641 306.5480957 C-70.78399476 305.21600524 -70.78399476 305.21600524 -73 303 C-73.20700437 296.63788359 -71.20340067 290.10616417 -69.65625 283.98828125 C-69.4157341 283.01661011 -69.1752182 282.04493896 -68.92741394 281.04382324 C-68.40155118 278.92179729 -67.87310355 276.8004106 -67.34237671 274.67959595 C-66.17149517 269.99942088 -65.01386594 265.3159954 -63.85539246 260.63273621 C-63.22759175 258.09499846 -62.59916853 255.55741465 -61.97016907 253.01997375 C-58.33935461 238.36835089 -54.78158165 223.69905173 -51.22498322 209.02927017 C-50.31942238 205.29441822 -49.41334168 201.55969238 -48.50732422 197.82495117 C-47.41179239 193.30889547 -46.31634221 188.79282003 -45.22125244 184.2766571 C-42.99027518 175.07683068 -40.7544938 165.87818557 -38.51527977 156.68036079 C-37.05040947 150.66225819 -35.58723945 144.64374233 -34.125 138.625 C-33.96509708 137.96683666 -33.80519417 137.30867332 -33.64044571 136.63056564 C-29.37561596 119.07192541 -25.15789208 101.50244933 -20.984375 83.921875 C-20.77156261 83.02544155 -20.55875023 82.1290081 -20.33948898 81.20541 C-18.24228463 72.36936896 -16.14810107 63.53261851 -14.05937004 54.69457054 C-7.02712271 24.94149957 -7.02712271 24.94149957 -3.5078125 10.7265625 C-3.26400848 9.73328949 -3.02020447 8.74001648 -2.76901245 7.71664429 C-2.54762604 6.83126984 -2.32623962 5.94589539 -2.09814453 5.03369141 C-1.90850128 4.27134186 -1.71885803 3.50899231 -1.52346802 2.72354126 C-1 1 -1 1 0 0 Z " fill="#50655E" transform="translate(419,61)"/>
<path d="M0 0 C3.07488822 11.23215247 5.83701518 22.51964628 8.5 33.85546875 C8.93194732 35.68675538 9.36410761 37.5179918 9.79646301 39.34918213 C10.71804258 43.25391225 11.63838429 47.15893117 12.55776978 51.06417847 C14.02742836 57.30591432 15.50098461 63.54672606 16.9753418 69.78735352 C17.34911406 71.36954634 17.34911406 71.36954634 17.73043728 72.98370266 C18.23653707 75.1260393 18.74264411 77.26837424 19.24875832 79.41070747 C20.26931291 83.73112439 21.28942986 88.05164459 22.30953121 92.37216854 C26.80127039 111.39614362 31.2952301 130.41956842 35.8125 149.4375 C36.00889194 150.26469292 36.20528389 151.09188583 36.40762711 151.9441452 C41.77442659 174.54447418 47.23625509 197.12048741 52.7734375 219.6796875 C53.06120497 220.85228937 53.34897243 222.02489124 53.64546013 223.2330265 C56.49612643 234.84640642 59.35182266 246.45852712 62.21979523 258.06764603 C63.27805323 262.35327949 64.33383103 266.63952181 65.38922501 270.92586136 C65.88252029 272.92622833 66.37707956 274.92628408 66.87298203 276.92600632 C67.55467714 279.67494621 68.23224409 282.42487365 68.90893555 285.17504883 C69.10773725 285.97189811 69.30653894 286.76874739 69.51136494 287.58974361 C70.60357958 292.04919773 71.42927134 296.44348521 72 301 C67.18778593 304.52195005 61.8633355 305.41079695 56.15234375 306.6640625 C55.10349503 306.90160248 54.0546463 307.13914246 52.97401428 307.38388062 C49.6303186 308.13924128 46.28403718 308.88234051 42.9375 309.625 C40.6814558 310.13199077 38.42559409 310.6397943 36.16992188 311.1484375 C31.20484581 312.26737278 26.23806473 313.37836967 21.26963806 314.48233032 C19.17199101 314.96077148 17.08503909 315.46958105 15 316 C16.59152896 324.26240569 18.26024178 332.40762162 20.546875 340.51171875 C21.01793711 343.09849945 20.90526163 344.55468962 20 347 C19 348 19 348 16.93359375 348.09765625 C15.69802734 348.08025391 15.69802734 348.08025391 14.4375 348.0625 C13.61121094 348.05347656 12.78492187 348.04445313 11.93359375 348.03515625 C11.29550781 348.02355469 10.65742187 348.01195312 10 348 C7.60340465 343.59028906 6.12086091 339.28126738 4.96972656 334.42407227 C4.7882265 333.6841891 4.60672644 332.94430593 4.41972637 332.18200207 C3.81973733 329.72843938 3.23014438 327.27250366 2.640625 324.81640625 C2.21597693 323.07018704 1.79071605 321.32411676 1.36488342 319.57818604 C0.22222517 314.88492173 -0.91124186 310.18948229 -2.04281235 305.49353409 C-2.99118673 301.56286926 -3.94492411 297.63351422 -4.89873409 293.70416546 C-12.07249216 264.14967322 -19.13864197 234.56982378 -26.15380859 204.97732544 C-30.11296641 188.28991267 -34.11985212 171.61392281 -38.125 154.9375 C-38.3166423 154.13949856 -38.50828461 153.34149712 -38.70573425 152.51931381 C-40.95122458 143.16924833 -43.19779664 133.8194431 -45.44510841 124.46981525 C-46.89006349 118.458058 -48.33389729 112.446032 -49.77754211 106.43395996 C-50.89787494 101.76941295 -52.01929106 97.10512668 -53.14077759 92.44085693 C-53.92402945 89.18106271 -54.70561715 85.92087269 -55.48706055 82.66064453 C-58.04058316 72.02379323 -60.64193473 61.40107068 -63.3125 50.79296875 C-64.10175498 47.63887991 -64.89021061 44.48459219 -65.67849731 41.33026123 C-66.41857888 38.38772955 -67.17269395 35.4490391 -67.92749023 32.51025391 C-68.36770164 30.75309913 -68.80727528 28.9957844 -69.24609375 27.23828125 C-69.45568726 26.44117233 -69.66528076 25.64406342 -69.88122559 24.82279968 C-70.35262917 22.90340567 -70.68874473 20.95177224 -71 19 C-68.48913082 15.23369624 -67.17530976 15.21164852 -62.86962891 14.08300781 C-62.24177994 13.91515274 -61.61393097 13.74729767 -60.96705627 13.57435608 C-58.88975521 13.02235298 -56.80850138 12.48734673 -54.7265625 11.953125 C-53.28149426 11.57460956 -51.8366215 11.19534708 -50.39193726 10.81536865 C-47.36245388 10.02133368 -44.33098869 9.23552457 -41.29785156 8.45556641 C-37.41124685 7.45557868 -33.52986798 6.43681559 -29.64974403 5.41200638 C-26.66616687 4.62596356 -23.68022322 3.84925002 -20.69346237 3.07540131 C-19.26143276 2.70331799 -17.83011063 2.32850075 -16.39952469 1.95090485 C-14.39835639 1.42435148 -12.39438403 0.91027172 -10.38916016 0.39941406 C-9.24935699 0.10423889 -8.10955383 -0.19093628 -6.93521118 -0.49505615 C-4.14279928 -0.97543427 -2.62357368 -0.9628757 0 0 Z " fill="#4F645D" transform="translate(103,63)"/>
<path d="M0 0 C0 0.99 0 1.98 0 3 C0.66 3 1.32 3 2 3 C4.24482354 11.92466662 6.47954408 20.85178399 8.70138645 29.78219986 C9.73338081 33.92881644 10.76884198 38.07450257 11.81225586 42.21826172 C12.81896808 46.21680524 13.81653387 50.21752879 14.80778313 54.21993256 C15.18767977 55.74696904 15.57087213 57.27318948 15.95739937 58.7985611 C16.49799188 60.93428242 17.02682147 63.07259788 17.55297852 65.21191406 C17.8572023 66.4288092 18.16142609 67.64570435 18.47486877 68.8994751 C18.97463695 71.85024927 19.02312003 73.25790553 18 76 C15.65743974 82.46992835 14.04139743 88.92778672 12.62182617 95.64892578 C11.1061452 102.76485155 9.32244142 109.81079218 7.5397644 116.86331177 C6.66309878 120.33364274 5.79271058 123.8055461 4.921875 127.27734375 C4.74701569 127.97401154 4.57215637 128.67067932 4.39199829 129.38845825 C-4.71137729 165.03938869 -4.71137729 165.03938869 -12.70654297 200.94604492 C-13.83965008 206.47199481 -15.33282037 211.84214709 -16.94140625 217.25 C-18.2157838 221.76440016 -19.30442658 226.30868528 -20.375 230.875 C-22.23555853 238.80620374 -24.15003497 246.72144375 -26.125 254.625 C-26.36653809 255.59550293 -26.60807617 256.56600586 -26.85693359 257.56591797 C-28.48557249 264.06821137 -30.21236293 270.53966516 -32 277 C-32.66 276.67 -33.32 276.34 -34 276 C-34.68261719 273.84887695 -34.68261719 273.84887695 -35.296875 270.98828125 C-35.52987305 269.93302246 -35.76287109 268.87776367 -36.00292969 267.79052734 C-36.24946289 266.64277832 -36.49599609 265.4950293 -36.75 264.3125 C-38.57510487 256.11064324 -40.46910124 247.96240616 -42.75 239.875 C-45.70924327 229.32237875 -48.35854586 218.69802126 -51 208.0625 C-53.96142581 196.139572 -56.95260411 184.22881303 -60.09155273 172.35107422 C-61.68252444 166.30228802 -63.13610463 160.23122061 -64.53271484 154.13500977 C-65.71392471 149.04723897 -67.07761332 144.02515659 -68.5 139 C-69.13070497 136.74029778 -69.75864425 134.4798616 -70.38427734 132.21875 C-70.78929962 130.75925657 -71.19836919 129.30087921 -71.61181641 127.84375 C-75.88603429 112.58419608 -77.92773356 98.48750448 -70.08349609 84.10839844 C-67.65063385 79.37423928 -65.62344614 74.44084188 -63.5 69.5625 C-63.01563477 68.47227539 -62.53126953 67.38205078 -62.03222656 66.25878906 C-60.00298189 61.68228286 -57.99560779 57.12913286 -56.30859375 52.4140625 C-55.62990234 50.56941406 -55.62990234 50.56941406 -54.9375 48.6875 C-54.59589844 47.66011719 -54.25429688 46.63273437 -53.90234375 45.57421875 C-50.87268532 41.47453722 -46.72118829 40.57239406 -42 39 C-40.02055987 38.28721731 -38.04139864 37.57365965 -36.0625 36.859375 C-34.04251471 36.15381739 -32.02167264 35.45070811 -30 34.75 C-28.96488281 34.38648438 -27.92976563 34.02296875 -26.86328125 33.6484375 C-25.87714844 33.30554688 -24.89101563 32.96265625 -23.875 32.609375 C-22.98554688 32.29967773 -22.09609375 31.98998047 -21.1796875 31.67089844 C-19 31 -19 31 -17 31 C-17.495 18.13 -17.495 18.13 -18 5 C-15.7725 4.175 -13.545 3.35 -11.25 2.5 C-10.55551758 2.23896484 -9.86103516 1.97792969 -9.14550781 1.70898438 C-5.83926285 0.50706036 -3.57052204 0 0 0 Z " fill="#434343" transform="translate(350,81)"/>
<path d="M0 0 C0.33 0 0.66 0 1 0 C1 7.59 1 15.18 1 23 C-2.25875 24.258125 -5.5175 25.51625 -8.875 26.8125 C-9.88030762 27.20284424 -10.88561523 27.59318848 -11.92138672 27.99536133 C-25.9212431 33.36283595 -25.9212431 33.36283595 -32.19580078 34.34301758 C-34.14219323 34.82247558 -34.14219323 34.82247558 -34.86230469 36.64453125 C-35.04696289 37.35996094 -35.23162109 38.07539062 -35.421875 38.8125 C-37.1731282 44.78847453 -39.70028448 50.32738385 -42.25 56 C-45.96009074 64.32832309 -49.58921461 72.67354798 -52.98144531 81.13671875 C-54.90290463 85.90290463 -54.90290463 85.90290463 -56 87 C-56.85279365 99.30259692 -55.34823045 110.19850432 -52 122 C-51.61005798 123.4073807 -51.22073798 124.81493388 -50.83203125 126.22265625 C-50.22099641 128.42488591 -49.60703546 130.62615874 -48.98632812 132.82568359 C-46.435247 141.89725191 -44.20405423 151.0467302 -41.94238281 160.19384766 C-40.03376814 167.90247529 -38.11121027 175.60762771 -36.1875 183.3125 C-35.97433136 184.16660461 -35.76116272 185.02070923 -35.54153442 185.9006958 C-32.49199867 198.11289791 -29.39543989 210.31215911 -26.25 222.5 C-23.63875338 232.61810284 -21.03884529 242.73840189 -18.5 252.875 C-18.25668945 253.84373047 -18.01337891 254.81246094 -17.76269531 255.81054688 C-17.54194336 256.69548828 -17.32119141 257.58042969 -17.09375 258.4921875 C-16.81047852 259.62696533 -16.81047852 259.62696533 -16.52148438 260.78466797 C-15.95761945 263.18003797 -15.46999807 265.584614 -15 268 C-12.89409956 261.19174559 -11.01839802 254.35612984 -9.3125 247.4375 C-9.06193848 246.42953369 -8.81137695 245.42156738 -8.55322266 244.38305664 C-7.00547203 238.13540627 -5.48414138 231.88149897 -3.97265625 225.625 C-3.71205162 224.54690819 -3.71205162 224.54690819 -3.44618225 223.44703674 C-2.59172484 219.91063751 -1.73961283 216.37370249 -0.8918457 212.83569336 C0.68106363 206.29326563 2.31221915 199.77665858 4.0703125 193.28125 C5.83095477 186.74447008 7.33628206 180.18159727 8.75 173.5625 C10.99440127 163.26616307 13.42669314 153.0303822 16 142.8125 C16.17074036 142.13428192 16.34148071 141.45606384 16.51739502 140.7572937 C17.67345253 136.17030514 18.83617855 131.58502413 20 127 C21.04508168 122.87585397 22.08744605 118.7510465 23.125 114.625 C23.36259033 113.68027832 23.60018066 112.73555664 23.8449707 111.76220703 C25.98206937 103.19772747 27.96728648 94.59956417 29.90869141 85.98876953 C31.43247613 79.27322492 33.13207371 72.62815195 35 66 C35.33 66.66 35.66 67.32 36 68 C36.66 68 37.32 68 38 68 C39.2953139 73.10125542 40.57650184 78.20578435 41.84521484 83.3137207 C42.27795387 85.04774244 42.71441269 86.78084057 43.15478516 88.51293945 C43.79029527 91.01535057 44.4119655 93.52087433 45.03125 96.02734375 C45.22811401 96.79022202 45.42497803 97.55310028 45.62780762 98.33909607 C48.34928645 109.51713079 46.08941575 118.96004895 43.328125 129.93359375 C42.93315472 131.53610674 42.53914258 133.13885614 42.14601135 134.74182129 C41.08074514 139.07474109 40.00298463 143.40446495 38.92303848 147.73374557 C37.79353656 152.27122136 36.67578669 156.81158745 35.55737305 161.35180664 C34.15711041 167.03330341 32.75576448 172.71452341 31.34941101 178.39451599 C27.9538498 192.10983751 24.59292773 205.83330908 21.25390625 219.5625 C20.90762869 220.98586009 20.90762869 220.98586009 20.55435562 222.43797493 C19.41662066 227.11466138 18.2792651 231.79143998 17.14221191 236.46829224 C15.21350208 244.40131285 13.28473317 252.33431593 11.35093498 260.26609802 C10.96705657 261.84164385 10.58365094 263.41730495 10.20074654 264.99308777 C9.67901214 267.14012487 9.15573892 269.2867812 8.63208008 271.43334961 C8.33932693 272.63608017 8.04657379 273.83881073 7.74494934 275.07798767 C7 278 7 278 6 281 C6.59723877 281.08564209 7.19447754 281.17128418 7.80981445 281.25952148 C17.99475627 282.83529809 28.02234598 285.12254947 38.07641602 287.3684082 C41.21714258 288.06911334 44.35945693 288.76235767 47.50195312 289.45507812 C49.49489025 289.89799414 51.48773245 290.34133756 53.48046875 290.78515625 C54.42198288 290.99245865 55.36349701 291.19976105 56.33354187 291.41334534 C57.19566788 291.60702194 58.05779388 291.80069855 58.94604492 292.00024414 C59.70705002 292.16964005 60.46805511 292.33903595 61.25212097 292.51356506 C63 293 63 293 64 294 C64.33075606 299.4750684 63.45502666 304.14218356 62.0625 309.375 C61.88009766 310.09816406 61.69769531 310.82132812 61.50976562 311.56640625 C60.14560288 316.85439712 60.14560288 316.85439712 59 318 C51.67689714 317.84073471 44.44548684 316.20975014 37.3046875 314.71484375 C36.23123077 314.49429825 35.15777405 314.27375275 34.05178833 314.04652405 C30.6585297 313.34824486 27.26676533 312.64299297 23.875 311.9375 C21.55999142 311.45982296 19.24488809 310.9826049 16.9296875 310.50585938 C11.28535213 309.34254297 5.6422234 308.17351447 0 307 C-0.14622803 307.56509277 -0.29245605 308.13018555 -0.44311523 308.71240234 C-1.10559865 311.26720749 -1.77150654 313.82110773 -2.4375 316.375 C-2.66759766 317.26445312 -2.89769531 318.15390625 -3.13476562 319.0703125 C-3.35712891 319.92109375 -3.57949219 320.771875 -3.80859375 321.6484375 C-4.01282959 322.43395996 -4.21706543 323.21948242 -4.42749023 324.02880859 C-5 326 -5 326 -6 328 C-12.28481935 327.51655236 -12.28481935 327.51655236 -15.05786133 325.51367188 C-17.8033546 321.96023394 -18.68955487 318.33440783 -19.82421875 314.03125 C-20.20135262 312.65580017 -20.20135262 312.65580017 -20.58610535 311.25256348 C-23.61985096 300.00789469 -26.27089048 288.66507639 -28.9190979 277.32476807 C-29.83796532 273.39097971 -30.76292557 269.45867156 -31.69018555 265.52685547 C-32.00367753 264.19735722 -32.31716935 262.86785893 -32.63066101 261.5383606 C-32.86193978 260.55762259 -32.86193978 260.55762259 -33.09789085 259.55707169 C-33.55972375 257.5977159 -34.02096113 255.63822086 -34.48200989 253.67868042 C-36.72428929 244.15225439 -38.99304119 234.63292141 -41.3125 225.125 C-41.47477081 224.45919922 -41.63704163 223.79339844 -41.80422974 223.10742188 C-44.56678141 211.78282171 -47.36259399 200.46636013 -50.15234375 189.1484375 C-50.33917032 188.39041965 -50.52599689 187.63240181 -50.71848488 186.85141373 C-52.61948101 179.1385514 -54.5210146 171.42582396 -56.42612171 163.71397591 C-58.6253312 154.81125207 -60.81626112 145.90653079 -63 137 C-63.27287842 135.89027832 -63.54575684 134.78055664 -63.8269043 133.63720703 C-64.54063313 130.72807291 -65.24820897 127.81753015 -65.953125 124.90625 C-66.15162048 124.10006226 -66.35011597 123.29387451 -66.55462646 122.46325684 C-66.73414856 121.71547974 -66.91367065 120.96770264 -67.09863281 120.19726562 C-67.2503595 119.57259399 -67.40208618 118.94792236 -67.55841064 118.30432129 C-68.78016618 111.92890203 -69.14642335 105.73093207 -69.12939453 99.26074219 C-69.13202301 98.01041702 -69.13202301 98.01041702 -69.13470459 96.73483276 C-69.13907244 94.00549175 -69.13620416 91.27621656 -69.1328125 88.546875 C-69.13348674 86.63975004 -69.13445777 84.73262516 -69.13571167 82.82550049 C-69.13718155 78.84134091 -69.13505597 74.85720383 -69.13037109 70.87304688 C-69.12465869 65.76636349 -69.12796684 60.65973249 -69.13394356 55.55305099 C-69.1375551 51.6205811 -69.13640811 47.68812365 -69.13381577 43.75565338 C-69.13314895 41.87218469 -69.13396637 39.98871487 -69.13629532 38.1052475 C-69.13883324 35.47736099 -69.1349658 32.84955983 -69.12939453 30.22167969 C-69.13141876 29.44446564 -69.13344299 28.66725159 -69.13552856 27.8664856 C-69.12207012 24.44174492 -69.0832312 21.27260954 -68 18 C-34.4627668 10.19935876 -34.4627668 10.19935876 -18.8125 7 C-17.82451416 6.79286377 -16.83652832 6.58572754 -15.81860352 6.37231445 C-10.43394627 5.295383 -5.49117977 4.79351615 0 5 C0 3.35 0 1.7 0 0 Z " fill="#313132" transform="translate(332,89)"/>
<path d="M0 0 C10.12684136 0 10.12684136 0 15.20654297 1.06982422 C16.90277298 1.42051468 16.90277298 1.42051468 18.63327026 1.77828979 C19.82421295 2.03450104 21.01515564 2.29071228 22.2421875 2.5546875 C23.48751251 2.81629669 24.73283752 3.07790588 26.01589966 3.34744263 C28.63403482 3.89964181 31.25113096 4.45527219 33.8671875 5.01708984 C37.21732941 5.73619758 40.57024814 6.44122718 43.92428398 7.14192009 C47.13584841 7.81444434 50.34518921 8.49738196 53.5546875 9.1796875 C54.75777557 9.43185028 55.96086365 9.68401306 57.20040894 9.94381714 C58.31231598 10.1839151 59.42422302 10.42401306 60.56982422 10.67138672 C61.54861542 10.88012421 62.52740662 11.08886169 63.53585815 11.30392456 C66 12 66 12 69 14 C69.31291288 16.92936962 69.43009595 19.64922196 69.41992188 22.58276367 C69.42839142 23.4727002 69.43686096 24.36263672 69.44558716 25.27954102 C69.4691048 28.24249362 69.46997399 31.20492952 69.46875 34.16796875 C69.47585548 36.23993637 69.48355505 38.31190204 69.49182129 40.38386536 C69.50530892 44.74790884 69.50682137 49.11177152 69.50097656 53.47583008 C69.4951523 59.00265012 69.5253453 64.52856965 69.56609344 70.05521679 C69.59230324 74.34965991 69.59481678 78.64389777 69.59120178 82.93840981 C69.59287002 84.97087125 69.60228468 87.00334467 69.62034607 89.03572655 C69.73832729 103.98617098 67.64466321 117.51978076 64 132 C63.68229432 133.32958234 63.36712649 134.65977597 63.05551147 135.99079895 C62.2788033 139.27777842 61.47147518 142.55539622 60.65234375 145.83203125 C60.35937912 147.01637253 60.06641449 148.20071381 59.76457214 149.42094421 C59.1444472 151.92711778 58.52298078 154.43295978 57.90020752 156.93847656 C56.22431254 163.68243182 54.55952363 170.42912751 52.89453125 177.17578125 C52.72681465 177.85496235 52.55909805 178.53414345 52.38629913 179.23390579 C49.48132828 191.00025851 46.63550417 202.78011988 43.82424927 214.56921387 C39.17481052 234.05655726 34.47851847 253.53294499 29.72429848 272.99499702 C28.77189938 276.8940796 27.82224817 280.79377675 26.87994385 284.6953125 C25.99198991 288.37112954 25.09575269 292.04483199 24.19342422 295.71714592 C23.86135094 297.07452506 23.53214072 298.43260847 23.20608139 299.79144478 C18.56303008 319.11767071 18.56303008 319.11767071 14.30908203 322.24183655 C11.0677903 323.77133958 9.43331214 324.14443738 6 323 C5.20043945 320.95874023 5.20043945 320.95874023 4.61328125 318.30859375 C4.39736328 317.36435547 4.18144531 316.42011719 3.95898438 315.44726562 C3.74564453 314.45404297 3.53230469 313.46082031 3.3125 312.4375 C3.08755859 311.44041016 2.86261719 310.44332031 2.63085938 309.41601562 C2.07548657 306.94637913 1.53247315 304.47465709 1 302 C0.36408432 302.13780884 -0.27183136 302.27561768 -0.92701721 302.41760254 C-7.56026369 303.85361013 -14.19561931 305.27954255 -20.83227539 306.69970703 C-23.30711205 307.23066551 -25.78140399 307.76416974 -28.25512695 308.30029297 C-31.81580881 309.07152364 -35.37836467 309.83350569 -38.94140625 310.59375 C-40.04271378 310.83436157 -41.1440213 311.07497314 -42.27870178 311.32287598 C-47.62945897 312.45534205 -52.52867018 313.29961234 -58 313 C-64.36968085 295.41968085 -64.36968085 295.41968085 -62 289 C-57.70357201 286.83090929 -52.96261818 285.95886782 -48.296875 284.90625 C-47.45964905 284.71405884 -46.6224231 284.52186768 -45.75982666 284.32385254 C-43.09073364 283.71211681 -40.42039814 283.10601019 -37.75 282.5 C-35.96996881 282.09281179 -34.19002 281.68526327 -32.41015625 281.27734375 C-24.29030103 279.41918856 -24.29030103 279.41918856 -20.26843262 278.5144043 C-18.69883326 278.1584719 -17.13096734 277.79484017 -15.5645752 277.42504883 C-14.7753064 277.24159912 -13.9860376 277.05814941 -13.17285156 276.86914062 C-12.46727112 276.70240845 -11.76169067 276.53567627 -11.034729 276.3638916 C-9 276 -9 276 -5 276 C-5.36711845 274.74788475 -5.36711845 274.74788475 -5.74165344 273.47047424 C-8.30110355 264.64155491 -10.60991013 255.77007607 -12.79296875 246.83984375 C-13.14359498 245.4139374 -13.494446 243.9880863 -13.84550476 242.56228638 C-14.77186181 238.79704879 -15.69496533 235.03102123 -16.61727142 231.26478958 C-17.38539669 228.1298188 -18.15538233 224.9953062 -18.92538834 221.86079693 C-20.9720509 213.52932005 -23.01450379 205.1968176 -25.05426025 196.86364746 C-25.86697803 193.54343705 -26.68020019 190.22335085 -27.49365234 186.90332031 C-29.46250995 178.8637872 -31.41962711 170.82158769 -33.35791016 162.77462769 C-34.62050545 157.54300446 -35.90711129 152.31751422 -37.19842529 147.09291077 C-38.23931421 142.87230644 -39.27046767 138.64935531 -40.30010986 134.42599487 C-40.8013808 132.37887435 -41.30659849 130.33271549 -41.81610107 128.28762817 C-42.52484053 125.4403529 -43.21897411 122.58986191 -43.91015625 119.73828125 C-44.12214157 118.90137756 -44.33412689 118.06447388 -44.55253601 117.20220947 C-46.75096381 107.99429588 -46.33680368 99.84103857 -44.03125 90.7109375 C-43.8314856 89.88163727 -43.63172119 89.05233704 -43.42590332 88.19790649 C-42.79455743 85.5875483 -42.1476073 82.98136583 -41.5 80.375 C-41.06536157 78.59009781 -40.63175857 76.80494316 -40.19921875 75.01953125 C-39.14474069 70.67668158 -38.0762647 66.33749939 -37 62 C-36.34 62 -35.68 62 -35 62 C-34.67 61.34 -34.34 60.68 -34 60 C-33.74420166 61.10883545 -33.48840332 62.2176709 -33.22485352 63.36010742 C-27.90862286 86.38763809 -22.50327238 109.38918702 -16.87181091 132.34172058 C-15.50379677 137.9240264 -14.14917171 143.50951749 -12.79761314 149.09582901 C-8.21751025 168.026241 -3.58827082 186.94420607 1.07421875 205.85449219 C2.06598692 209.87723692 3.05582392 213.90045435 4.04524612 217.92377663 C4.82674948 221.10027045 5.60956275 224.27644043 6.39272308 227.45252609 C6.75831141 228.93603489 7.12344995 230.41965463 7.48807526 231.90340042 C9.87996742 241.63385547 12.3838485 251.32721294 15 261 C16.8272462 258.2591307 17.46945329 256.73430662 18.23339844 253.6340332 C18.45413025 252.7507283 18.67486206 251.8674234 18.90228271 250.95735168 C19.13562317 249.99818344 19.36896362 249.0390152 19.609375 248.05078125 C19.8586676 247.0465361 20.10796021 246.04229095 20.36480713 245.00761414 C21.16540303 241.77724801 21.95786745 238.54495074 22.75 235.3125 C23.26768287 233.21666186 23.78590677 231.12095728 24.3046875 229.02539062 C25.34793401 224.80838844 26.38887109 220.59082668 27.42797852 216.37280273 C31.18037347 201.15124709 34.95258888 185.94203064 39.0625 170.8125 C41.6561893 161.19351574 44.10112988 151.56016108 46.34790039 141.85473633 C47.64213427 136.32492801 49.20990527 130.94445634 50.95703125 125.5390625 C53.13829677 118.1374649 54.77035301 110.58184612 56.4909668 103.06201172 C56.91295383 101.35261006 57.44321215 99.67036355 58 98 C59.40317361 84.24889862 54.17067489 74.16386217 48.0390625 62.23828125 C43.89313959 53.86485571 40.54993044 45.08610291 37.03393555 36.43505859 C36.69273682 35.63148926 36.35153809 34.82791992 36 34 C35.52771973 32.8855249 35.52771973 32.8855249 35.04589844 31.74853516 C34.05235096 29.68283059 34.05235096 29.68283059 31.12890625 28.875 C29.95199219 28.58625 28.77507812 28.2975 27.5625 28 C17.96401042 25.48751193 9.0099404 22.13571035 0 18 C0 12.06 0 6.12 0 0 Z " fill="#313131" transform="translate(188,94)"/>
<path d="M0 0 C8.84698726 1.39786077 17.38361708 3.60462229 26 6 C27.29978662 9.66912375 26.69768232 12.22801723 25.77514648 15.95947266 C25.47936203 17.17567291 25.18357758 18.39187317 24.87882996 19.64492798 C24.54306726 20.98467693 24.20715036 22.32438724 23.87109375 23.6640625 C23.52616449 25.06810279 23.18209288 26.47235402 22.83882141 27.87680054 C22.10154073 30.8858463 21.3585269 33.89339524 20.61096191 36.89990234 C19.42643317 41.66409505 18.25457202 46.43134496 17.08496094 51.19921875 C15.88832529 56.07474446 14.69088252 60.95006365 13.48892212 65.82427979 C10.15159654 79.35789039 6.86527252 92.90322422 3.60336304 106.45523071 C2.73966634 110.0429248 1.87455223 113.63027443 1.0090332 117.2175293 C-1.63669605 128.18425581 -4.27792363 139.15205812 -6.9140625 150.12109375 C-14.02117642 179.68980217 -21.17131356 209.24797897 -28.33499908 238.80302811 C-29.10884465 241.9958445 -29.88253589 245.18869824 -30.65618896 248.38156128 C-31.15734327 250.44960661 -31.6585029 252.51765064 -32.15966797 254.58569336 C-32.4065077 255.60442504 -32.65334743 256.62315672 -32.90766716 257.67275906 C-34.1361323 262.74135822 -35.36642646 267.80950175 -36.60043335 272.87675476 C-37.08817411 274.88022432 -37.57585526 276.88370839 -38.06347656 278.88720703 C-38.30384203 279.87479035 -38.5442075 280.86237368 -38.79185677 281.87988377 C-40.31715301 288.15803624 -41.82221818 294.44073455 -43.31450844 300.72681141 C-44.31525655 304.93716218 -45.32405677 309.14556197 -46.33395004 313.35372734 C-46.81074065 315.34981059 -47.28371624 317.34680934 -47.75268936 319.34474373 C-48.39821821 322.09348719 -49.05673002 324.83881153 -49.71826172 327.58374023 C-49.90565289 328.39705999 -50.09304405 329.21037975 -50.28611374 330.04834557 C-51.22261771 333.87724503 -51.88952101 336.50160733 -55 339 C-57.26171875 338.85546875 -57.26171875 338.85546875 -59.6875 338.1875 C-60.49574219 337.97480469 -61.30398438 337.76210938 -62.13671875 337.54296875 C-62.75160156 337.36378906 -63.36648438 337.18460937 -64 337 C-64.34556438 330.74528467 -63.04948115 325.28878869 -61.5 319.25 C-61.02827681 317.38095622 -60.55939614 315.51119206 -60.09375 313.640625 C-59.88427734 312.82110352 -59.67480469 312.00158203 -59.45898438 311.15722656 C-58.89594618 308.87853274 -58.89594618 308.87853274 -59 306 C-64.445 304.515 -64.445 304.515 -70 303 C-70 302.67 -70 302.34 -70 302 C-68.35 302 -66.7 302 -65 302 C-64.89204102 300.74727295 -64.78408203 299.4945459 -64.67285156 298.20385742 C-64.04276019 292.57085424 -62.67632125 287.21082712 -61.234375 281.73828125 C-60.8214621 280.13765083 -60.8214621 280.13765083 -60.40020752 278.50468445 C-59.52262203 275.10575119 -58.63692865 271.70900608 -57.75 268.3125 C-56.59479577 263.87216356 -55.44368509 259.43079308 -54.296875 254.98828125 C-54.01562775 253.89948166 -53.73438049 252.81068207 -53.4446106 251.68888855 C-51.36629944 243.58002644 -49.44641973 235.44325902 -47.64300537 227.26899719 C-46.43959532 221.82560949 -45.09688319 216.43940895 -43.625 211.0625 C-41.36823496 202.69791735 -39.4445276 194.26776982 -37.5625 185.8125 C-34.99388227 174.27333663 -32.24987629 162.7913709 -29.34375 151.33203125 C-27.18016101 142.79532807 -25.19246882 134.21780772 -23.23046875 125.6328125 C-20.86927514 115.30416879 -18.33625612 105.02235726 -15.62109375 94.78125 C-11.24234368 78.24994507 -7.37967756 61.62350774 -3.64027405 44.93728638 C-3.17210731 42.84869263 -2.70315675 40.76027595 -2.23413086 38.671875 C-1.63515793 36.00464058 -1.04022557 33.33661187 -0.44750977 30.66796875 C1.01050236 24.15491723 2.56511437 17.7093153 4.44189453 11.30322266 C5.21842878 8.09857519 5.2185853 5.27877953 5 2 C4.01 2.33 3.02 2.66 2 3 C2 2.34 2 1.68 2 1 C1.01 0.505 1.01 0.505 0 0 Z " fill="#546862" transform="translate(462,73)"/>
<path d="M0 0 C-0.99 0.99 -1.98 1.98 -3 3 C-3.33 2.34 -3.66 1.68 -4 1 C-4.99 1.33 -5.98 1.66 -7 2 C-6.48227648 8.89868892 -5.36891866 15.41976813 -3.6875 22.125 C-3.48705078 22.94742188 -3.28660156 23.76984375 -3.08007812 24.6171875 C-2.09947947 28.62458756 -1.09374745 32.62564003 -0.09155273 36.62768555 C2.40520634 46.59899583 4.87675024 56.57609732 7.3125 66.5625 C7.50564789 67.35393402 7.69879578 68.14536804 7.89779663 68.96078491 C10.95629534 81.5123768 13.86599857 94.0915821 16.68017578 106.69995117 C18.38296332 114.31728834 20.16987977 121.89978564 22.10546875 129.4609375 C23.11720538 133.4637034 24.06343478 137.47912756 25 141.5 C26.91209887 149.68903241 28.94329535 157.84626226 31 166 C37.33206898 191.12275283 43.53819448 216.26967797 49.19549561 241.55352783 C51.5420472 252.03875203 54.0341157 262.46774832 56.74755859 272.86425781 C57.58883654 276.09520241 58.41949293 279.32877207 59.25 282.5625 C59.52078369 283.58722412 59.79156738 284.61194824 60.07055664 285.66772461 C62.16390097 293.85018462 62.16390097 293.85018462 61.984375 298.08984375 C61.99210937 299.53037109 61.99210937 299.53037109 62 301 C62.99 301.66 63.98 302.32 65 303 C62.36 303.66 59.72 304.32 57 305 C58.59152896 313.26240569 60.26024178 321.40762162 62.546875 329.51171875 C63.01793711 332.09849945 62.90526163 333.55468962 62 336 C61 337 61 337 58.93359375 337.09765625 C57.69802734 337.08025391 57.69802734 337.08025391 56.4375 337.0625 C55.61121094 337.05347656 54.78492187 337.04445313 53.93359375 337.03515625 C53.29550781 337.02355469 52.65742187 337.01195312 52 337 C49.60340465 332.59028906 48.12086091 328.28126738 46.96972656 323.42407227 C46.7882265 322.6841891 46.60672644 321.94430593 46.41972637 321.18200207 C45.81973733 318.72843938 45.23014438 316.27250366 44.640625 313.81640625 C44.21597693 312.07018704 43.79071605 310.32411676 43.36488342 308.57818604 C42.22222517 303.88492173 41.08875814 299.18948229 39.95718765 294.49353409 C39.00881327 290.56286926 38.05507589 286.63351422 37.10126591 282.70416546 C29.92750784 253.14967322 22.86135803 223.56982378 15.84619141 193.97732544 C11.88703359 177.28991267 7.88014788 160.61392281 3.875 143.9375 C3.6833577 143.13949856 3.49171539 142.34149712 3.29426575 141.51931381 C1.04877542 132.16924833 -1.19779664 122.8194431 -3.44510841 113.46981525 C-4.89006349 107.458058 -6.33389729 101.446032 -7.77754211 95.43395996 C-8.89787494 90.76941295 -10.01929106 86.10512668 -11.14077759 81.44085693 C-11.92402945 78.18106271 -12.70561715 74.92087269 -13.48706055 71.66064453 C-16.04058316 61.02379323 -18.64193473 50.40107068 -21.3125 39.79296875 C-22.10175498 36.63887991 -22.89021061 33.48459219 -23.67849731 30.33026123 C-24.41857888 27.38772955 -25.17269395 24.4490391 -25.92749023 21.51025391 C-26.36770164 19.75309913 -26.80727528 17.9957844 -27.24609375 16.23828125 C-27.45568726 15.44117233 -27.66528076 14.64406342 -27.88122559 13.82279968 C-28.35262917 11.90340567 -28.68874473 9.95177224 -29 8 C-26.65111618 4.47667427 -25.86857707 4.39110696 -21.9140625 3.359375 C-20.90085937 3.09382813 -19.88765625 2.82828125 -18.84375 2.5546875 C-17.7815625 2.28914063 -16.719375 2.02359375 -15.625 1.75 C-14.57054687 1.46898438 -13.51609375 1.18796875 -12.4296875 0.8984375 C-3.82468715 -1.30741284 -3.82468715 -1.30741284 0 0 Z " fill="#566A65" transform="translate(61,74)"/>
<path d="M0 0 C1.24534232 0.00092179 2.49068464 0.00184359 3.77376461 0.00279331 C4.46473938 0.00193889 5.15571416 0.00108446 5.86762756 0.00020415 C8.20004874 -0.00145264 10.53239917 0.00407393 12.8648138 0.00952244 C14.52996475 0.00980429 16.19511582 0.00964661 17.86026669 0.00907993 C22.3951976 0.00879189 26.9301023 0.01468967 31.46502709 0.02165389 C36.19895023 0.02788635 40.9328739 0.02849114 45.6668005 0.0296793 C54.63763754 0.03279293 63.60846245 0.04100675 72.57929415 0.05102879 C82.78952046 0.06218893 92.99974733 0.06770012 103.20997822 0.07272422 C124.21919777 0.08318934 145.22840639 0.1007894 166.23761654 0.12304783 C166.71937569 1.37836507 167.19831295 2.63476546 167.6760931 3.89160252 C167.94311031 4.59114048 168.21012753 5.29067844 168.48523617 6.01141453 C169.57946868 9.0824912 170.30025116 12.1887225 170.98761654 15.37304783 C171.38206966 17.1442197 171.38206966 17.1442197 171.78449154 18.95117283 C172.195809 21.83039504 172.22188286 23.4362668 171.23761654 26.12304783 C171.23761654 25.13304783 171.23761654 24.14304783 171.23761654 23.12304783 C170.10581966 23.48398533 168.97402279 23.84492283 167.80792904 24.21679783 C166.32620561 24.68569765 164.84443217 25.15443947 163.36261654 25.62304783 C162.61624935 25.86152439 161.86988216 26.10000095 161.10089779 26.34570408 C155.46417904 28.12304783 155.46417904 28.12304783 153.23761654 28.12304783 C153.23761654 30.76304783 153.23761654 33.40304783 153.23761654 36.12304783 C151.91761654 35.79304783 150.59761654 35.46304783 149.23761654 35.12304783 C150.22761654 35.12304783 151.21761654 35.12304783 152.23761654 35.12304783 C152.23761654 32.15304783 152.23761654 29.18304783 152.23761654 26.12304783 C151.55312435 25.85750095 150.86863216 25.59195408 150.16339779 25.31836033 C146.86925783 23.97255682 143.65213782 22.49747186 140.42511654 20.99804783 C139.26367123 20.4592197 138.10222591 19.92039158 136.90558529 19.36523533 C136.0251556 18.95531345 135.14472591 18.54539158 134.23761654 18.12304783 C133.57761654 20.10304783 132.91761654 22.08304783 132.23761654 24.12304783 C133.28949154 24.27773533 133.28949154 24.27773533 134.36261654 24.43554783 C137.62899301 25.21663786 140.28480174 26.54363526 143.23761654 28.12304783 C143.23761654 29.11304783 143.23761654 30.10304783 143.23761654 31.12304783 C128.89428133 35.07502025 114.28094403 37.72695791 99.6682806 40.45996189 C96.75681494 41.02269607 93.87259114 41.6534273 90.97980404 42.30273533 C81.3605811 44.18397529 72.36602938 42.85915708 62.89386654 40.78711033 C61.76235165 40.54769718 60.63083675 40.30828403 59.46503353 40.06161594 C57.09414425 39.5574691 54.72439698 39.04792388 52.3557806 38.53320408 C48.72281177 37.74483513 45.08615372 36.97567188 41.44855404 36.20898533 C39.13841855 35.7153138 36.82851387 35.22056071 34.51886654 34.72461033 C33.43142147 34.49432133 32.3439764 34.26403233 31.22357845 34.02676487 C30.21823055 33.80668766 29.21288265 33.58661045 28.17706966 33.35986423 C26.85116817 33.07340534 26.85116817 33.07340534 25.4984808 32.7811594 C23.23761654 32.12304783 23.23761654 32.12304783 20.23761654 30.12304783 C20.56761654 29.13304783 20.89761654 28.14304783 21.23761654 27.12304783 C23.50901236 26.01355833 25.82249333 25.21823351 28.20636654 24.38086033 C30.51348614 23.26381751 30.51348614 23.26381751 31.01886654 20.49023533 C31.12714779 19.31847752 31.12714779 19.31847752 31.23761654 18.12304783 C27.5478179 19.39819883 23.89090932 20.7470701 20.23761654 22.12304783 C19.42035091 22.40019627 18.60308529 22.6773447 17.76105404 22.96289158 C15.56650998 23.82873896 13.97469336 24.52066413 12.23761654 26.12304783 C11.28272215 29.15037783 11.12960102 31.96359389 11.23761654 35.12304783 C11.89761654 35.45304783 12.55761654 35.78304783 13.23761654 36.12304783 C12.24761654 36.12304783 11.25761654 36.12304783 10.23761654 36.12304783 C10.23761654 33.48304783 10.23761654 30.84304783 10.23761654 28.12304783 C9.52476498 28.00187595 8.81191341 27.88070408 8.07746029 27.75586033 C2.68526813 26.81240813 -2.53474018 25.74942574 -7.76238346 24.12304783 C-8.09238346 24.78304783 -8.42238346 25.44304783 -8.76238346 26.12304783 C-8.33295 20.11097943 -7.21943259 14.45643883 -5.76238346 8.62304783 C-5.58417057 7.90439548 -5.40595768 7.18574314 -5.2223444 6.44531345 C-3.61367216 0.1609677 -3.61367216 0.1609677 0 0 Z " fill="#69696A" transform="translate(178.76238346099854,57.876952171325684)"/>
<path d="M0 0 C0.15968262 0.72960937 0.31936523 1.45921875 0.48388672 2.2109375 C4.09737732 18.64281055 7.94447732 34.99953843 12.0625 51.3125 C15.40012778 64.53605477 18.62168275 77.77063606 21.64453125 91.0703125 C23.02960208 97.1622171 24.47538922 103.23867598 25.9375 109.3125 C26.18419434 110.33730469 26.43088867 111.36210937 26.68505859 112.41796875 C28.00363328 117.8863508 29.32775434 123.35338481 30.65234375 128.8203125 C34.53123458 144.84013163 38.34103103 160.8748496 42.10546875 176.921875 C42.26092163 177.58417618 42.41637451 178.24647736 42.57653809 178.92884827 C43.38234288 182.36282241 44.18609838 185.79725788 44.98681641 189.23242188 C46.74172426 196.74620094 48.5490506 204.24213045 50.43637085 211.72386169 C51.803749 217.16601022 53.11097212 222.62138675 54.40234375 228.08203125 C54.71276108 229.39383865 54.71276108 229.39383865 55.02944946 230.73214722 C55.87801268 234.3214415 56.72540781 237.91100587 57.57006836 241.5012207 C60.35559476 253.33189551 63.28114878 265.11218628 66.42585754 276.85269165 C67.39649417 280.48289894 68.35351051 284.11670246 69.3125 287.75 C69.63863281 288.98234375 69.96476562 290.2146875 70.30078125 291.484375 C71.01625063 295.08170708 71.12661217 298.342315 71 302 C66.59085217 303.10228696 62.51617599 303.07654536 58 303 C58.05285156 301.89914062 58.10570313 300.79828125 58.16015625 299.6640625 C58.15197796 294.32948172 56.81789092 289.49836574 55.4375 284.375 C54.88047795 282.23237639 54.32590345 280.0891154 53.7734375 277.9453125 C53.48178711 276.81641602 53.19013672 275.68751953 52.88964844 274.52441406 C51.357314 268.45394756 49.96550416 262.35140915 48.5625 256.25 C46.29073376 246.40965855 43.92060443 236.60159577 41.4375 226.8125 C38.80153747 216.41594722 36.41120633 205.98320562 34.12646484 195.50439453 C32.57652189 188.44744947 30.86089135 181.46564398 28.96655273 174.49438477 C26.95040188 166.99564824 25.19075093 159.43853193 23.4375 151.875 C23.28583374 151.22139496 23.13416748 150.56778992 22.97790527 149.89437866 C21.76657541 144.67090418 20.5610487 139.44610358 19.36230469 134.21972656 C17.73678453 127.13405289 16.0666865 120.09906949 14 113.125 C12.21498281 107.03656929 10.8951682 100.92506069 9.63623047 94.71337891 C8.30962825 88.26028904 6.75442101 81.8827705 5.125 75.5 C2.88160525 66.69888018 0.81929628 57.87197158 -1.125 49 C-3.71141723 37.20587081 -6.42167693 25.48542931 -9.75 13.875 C-10.78859366 10.15290489 -11.31583985 6.89535814 -11 3 C-10.360625 2.855625 -9.72125 2.71125 -9.0625 2.5625 C-7.02454854 2.18992819 -7.02454854 2.18992819 -6 1 C-3 0 -3 0 0 0 Z " fill="#4D625C" transform="translate(64,73)"/>
<path d="M0 0 C3.12290635 0.48578543 5.99580359 0.9986012 9 2 C10.51153118 8.47543535 9.18601338 13.42382465 7.4375 19.75 C6.8652366 21.92102014 6.29634126 24.09293032 5.73046875 26.265625 C5.43833496 27.38388672 5.14620117 28.50214844 4.84521484 29.65429688 C3.5178224 34.90865449 2.38791384 40.20199275 1.25 45.5 C-1.47515684 58.05266064 -4.58447339 70.49671581 -7.72827148 82.94970703 C-10.37957049 93.454928 -12.96752926 103.96149737 -15.31323242 114.54003906 C-16.73142618 120.90784777 -18.27942989 127.23690972 -19.875 133.5625 C-22.04260535 142.15669488 -24.17164834 150.75875129 -26.25 159.375 C-26.53327148 160.54925537 -26.81654297 161.72351074 -27.10839844 162.93334961 C-28.91847 170.4571351 -30.70923659 177.98536897 -32.4921875 185.515625 C-32.93194231 187.37061112 -33.37172107 189.22559156 -33.81152344 191.08056641 C-34.66390287 194.67594781 -35.51308967 198.272062 -36.36035156 201.86865234 C-38.49236952 210.88606265 -40.7314774 219.86268977 -43.12046814 228.81541443 C-45.11702317 236.34299466 -46.91093651 243.913833 -48.69677734 251.49365234 C-50.06612921 257.30129608 -51.47669668 263.09855786 -52.89453125 268.89453125 C-53.1347702 269.8767868 -53.37500916 270.85904236 -53.62252808 271.87106323 C-54.35202421 274.85166348 -55.08224171 277.8320864 -55.8125 280.8125 C-56.31972154 282.88475092 -56.82688325 284.95701648 -57.33398438 287.02929688 C-58.55530397 292.01969936 -59.77741904 297.00990639 -61 302 C-64.3 302 -67.6 302 -71 302 C-72.10276634 296.55965654 -71.72159621 292.37707529 -70.26953125 287.00390625 C-70.07783859 286.25270004 -69.88614594 285.50149384 -69.68864441 284.7275238 C-69.07544623 282.33583889 -68.44447382 279.94928432 -67.8125 277.5625 C-67.40699164 275.99575577 -67.00268519 274.42869994 -66.59960938 272.86132812 C-65.79725982 269.74750192 -64.98911516 266.63527214 -64.17626953 263.52416992 C-61.10540744 251.74573357 -58.24447356 239.92129802 -55.5 228.0625 C-55.19377071 226.74459005 -54.88737213 225.42671942 -54.58081055 224.10888672 C-53.98482696 221.54650775 -53.38943734 218.98399371 -52.79443359 216.42138672 C-49.96901808 204.25317127 -47.05515027 192.11286277 -44 180 C-38.18007634 156.90450792 -32.52493324 133.77276084 -27.20581055 110.55639648 C-25.22515064 101.92623623 -23.17397871 93.31414617 -21.09155273 84.70800781 C-19.90715343 79.80778902 -18.74695107 74.90409198 -17.62890625 69.98828125 C-15.79373652 62.00348559 -13.7849781 54.06328817 -11.78439331 46.11871338 C-6.94237537 26.89639337 -6.94237537 26.89639337 -2.35791016 7.61132812 C-1.09987011 2.19974022 -1.09987011 2.19974022 0 0 Z " fill="#4D625C" transform="translate(458,73)"/>
<path d="M0 0 C5.50808397 0.59015185 10.64878069 1.56663769 16 3 C14.68 3.33 13.36 3.66 12 4 C11.77848267 5.20982544 11.77848267 5.20982544 11.55249023 6.4440918 C9.21355897 18.6901694 6.13391905 30.73295306 3.0625 42.8125 C-0.33804954 56.20781666 -3.64535119 69.60062476 -6.58267212 83.10543823 C-7.61539446 87.79373333 -8.74653208 92.45902876 -9.875 97.125 C-10.25507202 98.7032959 -10.25507202 98.7032959 -10.64282227 100.31347656 C-12.37170442 107.46813429 -14.14388225 114.61132974 -15.9375 121.75 C-20.12332694 138.41063835 -24.22093152 155.09575867 -28.01611328 171.85009766 C-31.64364033 187.85606608 -35.65992364 203.76156581 -39.6862793 219.67114258 C-42.32924232 230.13995671 -44.87228198 240.61474279 -47.15454102 251.16845703 C-48.86808108 258.93406424 -50.87298208 266.63032279 -52.85888672 274.33007812 C-53.82866609 278.09352011 -54.78940658 281.85920409 -55.75 285.625 C-56.06815674 286.84751465 -56.38631348 288.0700293 -56.71411133 289.32958984 C-57.00954834 290.49184082 -57.30498535 291.6540918 -57.609375 292.8515625 C-58.0110791 294.41124756 -58.0110791 294.41124756 -58.42089844 296.00244141 C-59.01461526 299.07565184 -59.10373395 301.87807447 -59 305 C-63.37934119 304.48041715 -67.68803391 303.94324258 -72 303 C-71.01 302.34 -70.02 301.68 -69 301 C-67.94593586 298.09511664 -67.94593586 298.09511664 -67.1875 294.5 C-67.02499756 293.8085791 -66.86249512 293.1171582 -66.69506836 292.40478516 C-66.3267158 290.82874429 -65.9642484 289.25132087 -65.60644531 287.67285156 C-64.94456618 284.75568058 -64.26614205 281.84263846 -63.5859375 278.9296875 C-61.58122486 270.31800362 -59.59562873 261.70222376 -57.6796875 253.0703125 C-55.81011261 244.6714165 -53.88077396 236.33270314 -51.5 228.0625 C-49.33816251 220.54259145 -47.63636914 212.96984864 -46.01782227 205.31640625 C-41.93168123 186.12023731 -37.09082257 167.07527929 -32.25097656 148.05664062 C-28.63291587 133.82926076 -25.19047394 119.58738447 -22.0612793 105.24414062 C-20.54949996 98.35234009 -18.87029487 91.55784526 -16.98828125 84.7578125 C-15.75025303 80.05036924 -14.68559631 75.31256012 -13.625 70.5625 C-10.95984032 58.65401197 -7.99408274 46.82933917 -5 35 C-3.72579217 29.9591778 -2.4557655 24.91732014 -1.1875 19.875 C-0.88537598 18.68310059 -0.58325195 17.49120117 -0.27197266 16.26318359 C0.00984863 15.14250488 0.29166992 14.02182617 0.58203125 12.8671875 C0.83186768 11.87831543 1.0817041 10.88944336 1.33911133 9.87060547 C2.0168743 6.92670558 2.53382277 3.98408758 3 1 C2.01 0.67 1.02 0.34 0 0 Z " fill="#687D77" transform="translate(446,69)"/>
<path d="M0 0 C-0.66 0 -1.32 0 -2 0 C-2 0.66 -2 1.32 -2 2 C-2.66 2 -3.32 2 -4 2 C-3.69707031 3.04414062 -3.39414063 4.08828125 -3.08203125 5.1640625 C-0.76201563 13.27239993 1.37331133 21.38824881 3.1875 29.625 C5.54481584 40.3027713 8.20222847 50.8979774 10.875 61.5 C14.81825588 77.15943853 18.6068731 92.84277843 22.21630859 108.58300781 C22.99079012 111.95984377 23.76998342 115.3355569 24.55078125 118.7109375 C26.55555385 127.38156293 28.55858018 136.0524739 30.53125 144.73046875 C32.93583506 155.27776635 35.41332207 165.77975736 38.24414062 176.22119141 C39.92660514 182.50865388 41.26087885 188.84340944 42.54907227 195.22167969 C43.51997393 199.95083107 44.67680075 204.55800478 46.0625 209.1875 C47.50316463 214.00646736 48.57979635 218.79887549 49.4375 223.75 C50.42405528 229.40095059 51.71653853 234.86557693 53.3125 240.375 C55.7638056 248.84746467 57.74313964 257.39768849 59.68530273 265.99951172 C61.66538042 274.70622723 63.856686 283.34412912 66.17163086 291.9675293 C66.41147705 292.86511963 66.65132324 293.76270996 66.8984375 294.6875 C67.11161621 295.47511719 67.32479492 296.26273437 67.54443359 297.07421875 C68 299 68 299 68 301 C68.99 301.33 69.98 301.66 71 302 C66.73383684 303.13764351 63.43513689 304 59 304 C58.75507813 302.8759375 58.51015625 301.751875 58.2578125 300.59375 C55.43111642 287.81860317 52.31485393 275.12577541 49.125 262.4375 C43.82419116 241.34379258 38.59864636 220.23892442 33.83813477 199.01538086 C32.13235001 191.46257974 30.26445197 183.9551006 28.37084961 176.44750977 C24.07692434 159.40671781 19.96952605 142.3210638 16.0625 125.1875 C13.65751773 114.64339272 11.0591874 104.15499922 8.41238403 93.66976929 C6.13021809 84.62243497 3.95293102 75.5614415 1.93554688 66.45092773 C0.24730198 58.90781028 -1.63313005 51.41644574 -3.52856445 43.92346191 C-5.98105771 34.22731059 -8.42980252 24.53683175 -10.5 14.75 C-10.65992432 14.00081299 -10.81984863 13.25162598 -10.98461914 12.47973633 C-11.65350148 9.21511026 -12 6.35380462 -12 3 C-12.99 2.67 -13.98 2.34 -15 2 C-13.25364835 1.46706165 -11.50272348 0.94909337 -9.75 0.4375 C-8.77546875 0.14746094 -7.8009375 -0.14257812 -6.796875 -0.44140625 C-4.03756068 -0.99249836 -2.6087176 -0.93789609 0 0 Z " fill="#687D77" transform="translate(76,70)"/>
<path d="M0 0 C7.77232205 1.30048696 15.37726245 3.00451897 23 5 C23 5.33 23 5.66 23 6 C20.36 5.67 17.72 5.34 15 5 C14.89945312 6.05960937 14.79890625 7.11921875 14.6953125 8.2109375 C13.95011058 14.13879811 12.37039135 19.8501968 10.875 25.625 C8.28051878 35.80909593 5.79945408 46.00892614 3.4375 56.25 C1.39146419 65.10465955 -0.70489096 73.94049052 -2.9375 82.75 C-5.56571882 93.12128774 -8.01857901 103.53038791 -10.45083618 113.94885254 C-12.99158203 124.82244111 -15.61879087 135.66970498 -18.39038086 146.48730469 C-20.30898498 154.03579195 -22.06555161 161.6145423 -23.80078125 169.20703125 C-27.11651223 183.68571236 -30.74031172 198.08095651 -34.39819336 212.47631836 C-37.82341872 225.97373115 -41.0599629 239.48302596 -43.94335938 253.10717773 C-45.26792666 259.33421418 -46.83916737 265.49058925 -48.40820312 271.66015625 C-49.68959583 276.72652079 -50.94391899 281.79923468 -52.1875 286.875 C-52.58086548 288.44483643 -52.58086548 288.44483643 -52.98217773 290.04638672 C-54.66846224 296.96648019 -56 303.85010612 -56 311 C-56.66 311 -57.32 311 -58 311 C-58.33 311.66 -58.66 312.32 -59 313 C-59 310.69 -59 308.38 -59 306 C-64.445 304.515 -64.445 304.515 -70 303 C-70 302.67 -70 302.34 -70 302 C-68.35 302 -66.7 302 -65 302 C-64.89204102 300.74727295 -64.78408203 299.4945459 -64.67285156 298.20385742 C-64.04276019 292.57085424 -62.67632125 287.21082712 -61.234375 281.73828125 C-60.8214621 280.13765083 -60.8214621 280.13765083 -60.40020752 278.50468445 C-59.52262203 275.10575119 -58.63692865 271.70900608 -57.75 268.3125 C-56.59479577 263.87216356 -55.44368509 259.43079308 -54.296875 254.98828125 C-54.01562775 253.89948166 -53.73438049 252.81068207 -53.4446106 251.68888855 C-51.36629944 243.58002644 -49.44641973 235.44325902 -47.64300537 227.26899719 C-46.43959532 221.82560949 -45.09688319 216.43940895 -43.625 211.0625 C-41.36823496 202.69791735 -39.4445276 194.26776982 -37.5625 185.8125 C-34.99388227 174.27333663 -32.24987629 162.7913709 -29.34375 151.33203125 C-27.18016101 142.79532807 -25.19246882 134.21780772 -23.23046875 125.6328125 C-20.86927514 115.30416879 -18.33625612 105.02235726 -15.62109375 94.78125 C-11.24234368 78.24994507 -7.37967756 61.62350774 -3.64027405 44.93728638 C-3.17210731 42.84869263 -2.70315675 40.76027595 -2.23413086 38.671875 C-1.63515793 36.00464058 -1.04022557 33.33661187 -0.44750977 30.66796875 C1.01050236 24.15491723 2.56511437 17.7093153 4.44189453 11.30322266 C5.21842878 8.09857519 5.2185853 5.27877953 5 2 C4.01 2.33 3.02 2.66 2 3 C2 2.34 2 1.68 2 1 C1.01 0.505 1.01 0.505 0 0 Z " fill="#687E77" transform="translate(462,73)"/>
<path d="M0 0 C-0.99 0.99 -1.98 1.98 -3 3 C-3.33 2.34 -3.66 1.68 -4 1 C-4.99 1.33 -5.98 1.66 -7 2 C-6.48227648 8.89868892 -5.36891866 15.41976813 -3.6875 22.125 C-3.48705078 22.94742188 -3.28660156 23.76984375 -3.08007812 24.6171875 C-2.09947947 28.62458756 -1.09374745 32.62564003 -0.09155273 36.62768555 C2.40520634 46.59899583 4.87675024 56.57609732 7.3125 66.5625 C7.50564789 67.35393402 7.69879578 68.14536804 7.89779663 68.96078491 C10.95629534 81.5123768 13.86599857 94.0915821 16.68017578 106.69995117 C18.38296332 114.31728834 20.16987977 121.89978564 22.10546875 129.4609375 C23.11720538 133.4637034 24.06343478 137.47912756 25 141.5 C26.91209887 149.68903241 28.94329535 157.84626226 31 166 C37.33206898 191.12275283 43.53819448 216.26967797 49.19549561 241.55352783 C51.5420472 252.03875203 54.0341157 262.46774832 56.74755859 272.86425781 C57.58883654 276.09520241 58.41949293 279.32877207 59.25 282.5625 C59.52078369 283.58722412 59.79156738 284.61194824 60.07055664 285.66772461 C62.16390097 293.85018462 62.16390097 293.85018462 61.984375 298.08984375 C61.99210937 299.53037109 61.99210937 299.53037109 62 301 C62.99 301.66 63.98 302.32 65 303 C61.7 303.99 58.4 304.98 55 306 C54.75878418 304.94425781 54.51756836 303.88851563 54.26904297 302.80078125 C48.48660376 277.42559041 48.48660376 277.42559041 42.30786133 252.14501953 C40.00684329 243.06769506 37.777192 233.97370636 35.5625 224.875 C35.36767029 224.07504608 35.17284058 223.27509216 34.97210693 222.45089722 C32.46003139 212.12715844 30.00968905 201.7915222 27.625 191.4375 C24.28083743 176.92577627 20.65378852 162.48751352 16.99462891 148.05249023 C14.43383106 137.92155727 12.00653665 127.77134036 9.71504211 117.57598877 C8.2599867 111.10798773 6.71329553 104.6710295 5.0625 98.25 C2.9825676 90.04239072 1.00846698 81.8173578 -0.875 73.5625 C-3.20913908 63.33336389 -5.64339922 53.13160982 -8.125 42.9375 C-8.47129075 41.51400177 -8.81756377 40.09049922 -9.16381836 38.66699219 C-9.33115982 37.97907593 -9.49850128 37.29115967 -9.6709137 36.58239746 C-9.83494186 35.90809692 -9.99897003 35.23379639 -10.16796875 34.5390625 C-10.32881454 33.87797485 -10.48966034 33.21688721 -10.65538025 32.5357666 C-11.92919115 27.29776441 -13.19460996 22.05792746 -14.4375 16.8125 C-14.86869141 14.99685547 -14.86869141 14.99685547 -15.30859375 13.14453125 C-15.97649756 10.10688961 -16.51978948 7.07241485 -17 4 C-17.99 3.67 -18.98 3.34 -20 3 C-17.41932437 2.30081695 -14.83627153 1.61538951 -12.25 0.9375 C-11.15558594 0.63875977 -11.15558594 0.63875977 -10.0390625 0.33398438 C-6.28968956 -0.63744407 -3.69725762 -1.15449387 0 0 Z " fill="#687F78" transform="translate(61,74)"/>
<path d="M0 0 C1.24534232 0.00092179 2.49068464 0.00184359 3.77376461 0.00279331 C4.46473938 0.00193889 5.15571416 0.00108446 5.86762756 0.00020415 C8.20004874 -0.00145264 10.53239917 0.00407393 12.8648138 0.00952244 C14.52996475 0.00980429 16.19511582 0.00964661 17.86026669 0.00907993 C22.3951976 0.00879189 26.9301023 0.01468967 31.46502709 0.02165389 C36.19895023 0.02788635 40.9328739 0.02849114 45.6668005 0.0296793 C54.63763754 0.03279293 63.60846245 0.04100675 72.57929415 0.05102879 C82.78952046 0.06218893 92.99974733 0.06770012 103.20997822 0.07272422 C124.21919777 0.08318934 145.22840639 0.1007894 166.23761654 0.12304783 C166.23761654 0.45304783 166.23761654 0.78304783 166.23761654 1.12304783 C113.10761654 1.45304783 59.97761654 1.78304783 5.23761654 2.12304783 C25.93112817 7.29663596 25.93112817 7.29663596 46.67511654 12.24804783 C48.05992139 12.57209902 49.44468684 12.89631861 50.82941341 13.22070408 C58.19672956 14.94604928 58.19672956 14.94604928 65.56555843 16.66491795 C67.90574668 17.20964948 70.24552989 17.75609458 72.58527279 18.30273533 C73.30694134 18.47016239 74.02860989 18.63758945 74.77214718 18.81009007 C77.64279319 19.4819649 80.43868752 20.19007149 83.23761654 21.12304783 C83.23761654 28.05304783 83.23761654 34.98304783 83.23761654 42.12304783 C84.72261654 42.61804783 84.72261654 42.61804783 86.23761654 43.12304783 C78.13059427 43.46061045 70.80233751 42.51709765 62.89386654 40.78711033 C61.76235165 40.54769718 60.63083675 40.30828403 59.46503353 40.06161594 C57.09414425 39.5574691 54.72439698 39.04792388 52.3557806 38.53320408 C48.72281177 37.74483513 45.08615372 36.97567188 41.44855404 36.20898533 C39.13841855 35.7153138 36.82851387 35.22056071 34.51886654 34.72461033 C33.43142147 34.49432133 32.3439764 34.26403233 31.22357845 34.02676487 C30.21823055 33.80668766 29.21288265 33.58661045 28.17706966 33.35986423 C26.85116817 33.07340534 26.85116817 33.07340534 25.4984808 32.7811594 C23.23761654 32.12304783 23.23761654 32.12304783 20.23761654 30.12304783 C20.56761654 29.13304783 20.89761654 28.14304783 21.23761654 27.12304783 C23.50901236 26.01355833 25.82249333 25.21823351 28.20636654 24.38086033 C30.51348614 23.26381751 30.51348614 23.26381751 31.01886654 20.49023533 C31.12714779 19.31847752 31.12714779 19.31847752 31.23761654 18.12304783 C27.5478179 19.39819883 23.89090932 20.7470701 20.23761654 22.12304783 C19.42035091 22.40019627 18.60308529 22.6773447 17.76105404 22.96289158 C15.56650998 23.82873896 13.97469336 24.52066413 12.23761654 26.12304783 C11.28272215 29.15037783 11.12960102 31.96359389 11.23761654 35.12304783 C11.89761654 35.45304783 12.55761654 35.78304783 13.23761654 36.12304783 C12.24761654 36.12304783 11.25761654 36.12304783 10.23761654 36.12304783 C10.23761654 33.48304783 10.23761654 30.84304783 10.23761654 28.12304783 C9.52476498 28.00187595 8.81191341 27.88070408 8.07746029 27.75586033 C2.68526813 26.81240813 -2.53474018 25.74942574 -7.76238346 24.12304783 C-8.09238346 24.78304783 -8.42238346 25.44304783 -8.76238346 26.12304783 C-8.33295 20.11097943 -7.21943259 14.45643883 -5.76238346 8.62304783 C-5.58417057 7.90439548 -5.40595768 7.18574314 -5.2223444 6.44531345 C-3.61367216 0.1609677 -3.61367216 0.1609677 0 0 Z " fill="#6E6D6E" transform="translate(178.76238346099854,57.876952171325684)"/>
<path d="M0 0 C6.1112924 1.0388092 12.07704464 2.15730278 18 4 C14.94736336 4.98120464 13.05263664 4.98120464 10 4 C9.87415527 4.98476318 9.74831055 5.96952637 9.61865234 6.98413086 C9.02279293 11.13856261 8.09027928 15.17775906 7.1015625 19.25390625 C6.91086685 20.05141296 6.7201712 20.84891968 6.5236969 21.67059326 C5.89376676 24.30195061 5.25937676 26.93221146 4.625 29.5625 C4.1797855 31.41878987 3.73488593 33.2751553 3.2902832 35.1315918 C2.34990456 39.05621218 1.40778105 42.98040785 0.46435547 46.90429688 C-1.00646201 53.02358598 -2.47084972 59.14440163 -3.93359375 65.265625 C-4.17499084 66.27580185 -4.41638794 67.2859787 -4.6651001 68.32676697 C-5.14639191 70.34087913 -5.62767457 72.35499349 -6.10894775 74.36911011 C-6.7907548 77.22152651 -7.47312648 80.07380709 -8.15576172 82.92602539 C-8.37193649 83.82930573 -8.58811127 84.73258606 -8.81083679 85.66323853 C-9.23886957 87.45171994 -9.66693915 89.24019255 -10.095047 91.02865601 C-11.17620627 95.54760678 -12.25426556 100.06726934 -13.32739258 104.58813477 C-15.5241978 113.84206723 -17.73562291 123.09020123 -20.0625 132.3125 C-20.31580078 133.32119141 -20.56910156 134.32988281 -20.83007812 135.36914062 C-21.32911557 137.35640171 -21.82860259 139.34354997 -22.32861328 141.33056641 C-23.22286319 144.88610406 -24.11166638 148.44297949 -25 152 C-25.30679687 153.22074219 -25.61359375 154.44148437 -25.9296875 155.69921875 C-26.80542959 159.19790267 -27.65727929 162.70213881 -28.5078125 166.20703125 C-29.046875 168.40885417 -29.5859375 170.61067708 -30.125 172.8125 C-30.37894531 173.87017578 -30.63289063 174.92785156 -30.89453125 176.01757812 C-31.13816406 177.00822266 -31.38179688 177.99886719 -31.6328125 179.01953125 C-31.84824707 179.90745361 -32.06368164 180.79537598 -32.28564453 181.71020508 C-33 184 -33 184 -35 187 C-37.625 187.1875 -37.625 187.1875 -40 187 C-43.31443178 180.37113643 -39.6307671 171.36596223 -38 164.6875 C-37.68500405 163.37307246 -37.37081242 162.05845194 -37.05737305 160.74365234 C-36.39109809 157.95213271 -35.72091075 155.16159109 -35.04833984 152.37158203 C-33.97950756 147.9275819 -32.93460094 143.47815134 -31.89453125 139.02734375 C-31.63323929 137.91026283 -31.63323929 137.91026283 -31.3666687 136.77061462 C-31.01841353 135.28170681 -30.67019741 133.79278987 -30.32202148 132.30386353 C-30.06980835 131.22532608 -30.06980835 131.22532608 -29.8125 130.125 C-29.56971313 129.08646378 -29.56971313 129.08646378 -29.32202148 128.02694702 C-27.4137118 119.87430753 -25.45009837 111.73859209 -23.40730286 103.61856079 C-22.05908928 98.25607822 -20.76599804 92.88237399 -19.5 87.5 C-18.07776839 81.49044859 -16.63497077 75.48826016 -15.125 69.5 C-12.87398005 60.56912411 -10.73011092 51.61279065 -8.57568359 42.65820312 C-6.70534646 34.89392946 -4.79655576 27.1413065 -2.83984375 19.3984375 C-1.69673611 14.77283914 -0.64626317 10.12786657 0.38671875 5.4765625 C1 3 1 3 2 1 C1.34 0.67 0.68 0.34 0 0 Z " fill="#697E78" transform="translate(428,64)"/>
<path d="M0 0 C-1.98 0.66 -3.96 1.32 -6 2 C-5.38415373 7.46769036 -4.50009418 12.76325594 -3.29296875 18.12890625 C-3.12630203 18.88106918 -2.95963531 19.63323212 -2.78791809 20.40818787 C-2.43585518 21.99266055 -2.08196205 23.57672759 -1.72631836 25.16040039 C-1.19457594 27.53095483 -0.6700865 29.90302661 -0.14648438 32.27539062 C1.75204614 40.81654949 3.83457651 49.27668791 6.1315918 57.71899414 C7.2465329 61.93144661 8.15990692 66.16313752 9 70.4375 C10.39407654 77.49178543 12.08836192 84.45360085 13.84912109 91.42456055 C15.10633336 96.40625903 16.33031676 101.39590832 17.55078125 106.38671875 C17.77285751 107.29457626 17.99493378 108.20243378 18.22373962 109.13780212 C18.92045424 111.98758896 19.61655433 114.83752529 20.3125 117.6875 C20.55233612 118.66924194 20.79217224 119.65098389 21.03927612 120.66247559 C24.05840734 133.02222055 27.07211908 145.38326455 30.0625 157.75 C30.33682861 158.88268311 30.61115723 160.01536621 30.89379883 161.18237305 C32.00771898 165.8002268 33.11177126 170.4202444 34.171875 175.05078125 C34.32881836 175.73567627 34.48576172 176.42057129 34.64746094 177.1262207 C35.30613536 180.62713914 35.60878863 183.78242274 34 187 C31.69 186.67 29.38 186.34 27 186 C26.75765625 184.88625 26.5153125 183.7725 26.265625 182.625 C25.92720453 181.08330673 25.5886557 179.54164162 25.25 178 C25.09273437 177.27554688 24.93546875 176.55109375 24.7734375 175.8046875 C23.1698866 168.52703342 21.34847877 161.30534068 19.52496338 154.08050537 C18.69208045 150.77967055 17.86375477 147.47769368 17.03515625 144.17578125 C16.79393288 143.21499664 16.79393288 143.21499664 16.5478363 142.23480225 C11.54910246 122.31957013 6.7304296 102.37370947 2.2109375 82.34375 C1.80765178 80.56241843 1.40398868 78.78117227 1 77 C0.77513916 76.00645508 0.55027832 75.01291016 0.31860352 73.98925781 C-1.45447146 66.22217961 -3.35421375 58.49139451 -5.30371094 50.7668457 C-8.97762986 36.20338878 -12.53405068 21.61448677 -16 7 C-18.31 6.34 -20.62 5.68 -23 5 C-19.36377208 2.94998375 -15.50428596 1.88938079 -11.5 0.8125 C-10.83613281 0.62236328 -10.17226562 0.43222656 -9.48828125 0.23632812 C-6.02469674 -0.70042976 -3.40419264 -1.36341389 0 0 Z " fill="#687E77" transform="translate(99,64)"/>
<path d="M0 0 C53.79 0 107.58 0 163 0 C163 0.33 163 0.66 163 1 C161.68515625 1.22042969 161.68515625 1.22042969 160.34375 1.4453125 C150.67330363 3.15533046 141.1955073 5.36867867 131.69140625 7.84228516 C125.97238155 9.31684036 120.27882704 10.52533 114.46044922 11.53540039 C111.23714203 12.14404829 108.14322493 13.06581248 105 14 C101.36486983 14.92190641 97.71537181 15.77652741 94.0625 16.625 C92.63647461 16.96917969 92.63647461 16.96917969 91.18164062 17.3203125 C90.24642578 17.536875 89.31121094 17.7534375 88.34765625 17.9765625 C87.51242432 18.17330566 86.67719238 18.37004883 85.81665039 18.57275391 C78.55113504 19.67483 72.22471853 18.64201234 65.1484375 17.0234375 C64.21311188 16.81570709 63.27778625 16.60797668 62.31411743 16.39395142 C60.33480485 15.95239839 58.35641117 15.50670833 56.37890625 15.05712891 C53.43448153 14.3885071 50.48718205 13.73414301 47.5390625 13.08203125 C35.85773939 10.47310537 24.29863887 7.54208951 12.77197266 4.31884766 C8.53217753 3.13406882 4.27586111 2.04683381 0 1 C0 0.67 0 0.34 0 0 Z " fill="#2A2A2B" transform="translate(181,59)"/>
<path d="M0 0 C2.10575375 5.52760359 3.37851209 10.06997733 3 16 C-0.65495776 17.56963943 -4.20310189 18.59310877 -8.08789062 19.4362793 C-9.29264038 19.6996257 -10.49739014 19.96297211 -11.73864746 20.23429871 C-13.04443139 20.51466161 -14.35030109 20.79462533 -15.65625 21.07421875 C-17.00478291 21.36511637 -18.35329331 21.65611837 -19.70178223 21.94721985 C-22.5220211 22.55472147 -25.34303799 23.15845424 -28.16455078 23.76000977 C-31.77461188 24.53037329 -35.38167316 25.31391614 -38.98816681 26.10078716 C-41.76973719 26.70545837 -44.55317317 27.30115892 -47.33720398 27.8943882 C-48.66791169 28.17944462 -49.99793408 28.46772051 -51.32722473 28.75931358 C-53.18682335 29.16623236 -55.04942337 29.55936036 -56.91210938 29.9519043 C-57.96958374 30.1790361 -59.02705811 30.40616791 -60.11657715 30.6401825 C-63.0487847 31.00608776 -65.16206497 30.75718993 -68 30 C-68.53293835 28.25364835 -69.05090663 26.50272348 -69.5625 24.75 C-69.85253906 23.77546875 -70.14257812 22.8009375 -70.44140625 21.796875 C-70.9962842 19.01860498 -71.06193526 17.59584175 -70 15 C-67.06004981 12.97244814 -65.72295997 13 -62 13 C-61.67 12.34 -61.34 11.68 -61 11 C-58.7265625 10.51000977 -58.7265625 10.51000977 -55.625 10.12890625 C-49.95935061 9.33710853 -44.40212263 8.30593774 -38.8125 7.08984375 C-37.61560547 6.82960922 -37.61560547 6.82960922 -36.39453125 6.56411743 C-33.92902543 6.02488034 -31.46448714 5.48137179 -29 4.9375 C-26.49976422 4.38980402 -23.9992875 3.84321888 -21.4987793 3.29676819 C-19.95705782 2.95941256 -18.4155414 2.62111799 -16.87426758 2.28172302 C-5.87985246 -0.13674075 -5.87985246 -0.13674075 0 0 Z " fill="#576C65" transform="translate(185,403)"/>
<path d="M0 0 C6.6193539 0.18134435 13.12063651 1.50669642 19.56640625 2.92578125 C20.44417221 3.11464401 21.32193817 3.30350677 22.2263031 3.49809265 C24.07305494 3.8964719 25.9192478 4.29745067 27.76489258 4.70092773 C30.53025598 5.30545128 33.29714412 5.9025001 36.06445312 6.49804688 C47.07272695 8.87622959 58.04763339 11.37666246 69 14 C70.14921928 17.89192472 69.63117119 20.31729001 68.5625 24.25 C68.13130859 25.86648438 68.13130859 25.86648438 67.69140625 27.515625 C67.46324219 28.33546875 67.23507812 29.1553125 67 30 C63.22662334 31.35466032 60.36819788 30.66984773 56.50317383 29.84423828 C55.86046036 29.70944061 55.21774689 29.57464294 54.55555725 29.4357605 C52.4374582 28.98918972 50.32232043 28.52999341 48.20703125 28.0703125 C46.73554881 27.75673163 45.2639228 27.44382382 43.79216003 27.13156128 C40.71189195 26.47611179 37.63296033 25.81481089 34.55493164 25.14892578 C30.60207173 24.29393924 26.64694708 23.45005672 22.69087696 22.61006355 C19.65428182 21.96466624 16.61856289 21.31522973 13.5831356 20.66436386 C12.12440622 20.35173586 10.66549391 20.03996015 9.20639992 19.72903824 C7.17296125 19.29472424 5.14066898 18.85541841 3.10864258 18.41455078 C1.37134636 18.04029465 1.37134636 18.04029465 -0.40104675 17.65847778 C-3 17 -3 17 -4 16 C-4.4759384 10.1697546 -3.26847563 6.26286347 -1 1 C-0.67 0.67 -0.34 0.34 0 0 Z " fill="#566B64" transform="translate(337,403)"/>
<path d="M0 0 C1.32 0.33 2.64 0.66 4 1 C7.46687769 13.48928479 10.46074806 26.08578799 13.42871094 38.70141602 C14.25752174 42.21942713 15.09349274 45.73569073 15.9296875 49.25195312 C16.45876848 51.49468906 16.98742989 53.73752402 17.515625 55.98046875 C17.76556213 57.02833054 18.01549927 58.07619232 18.27301025 59.1558075 C18.50034851 60.12814835 18.72768677 61.1004892 18.96191406 62.10229492 C19.16302795 62.95417892 19.36414185 63.80606293 19.5713501 64.6837616 C20 67 20 67 20 71 C19.34 71 18.68 71 18 71 C17.67 71.99 17.34 72.98 17 74 C15.8553125 74.2165625 15.8553125 74.2165625 14.6875 74.4375 C11.91827092 74.9632594 11.91827092 74.9632594 9 76 C8.83918945 75.29617187 8.67837891 74.59234375 8.51269531 73.8671875 C4.88434151 57.90298285 4.88434151 57.90298285 1 42 C-0.81802542 34.78205226 -2.58666537 27.55307057 -4.3125 20.3125 C-4.59158203 19.17619141 -4.87066406 18.03988281 -5.15820312 16.86914062 C-5.41150391 15.79470703 -5.66480469 14.72027344 -5.92578125 13.61328125 C-6.15692627 12.65204346 -6.38807129 11.69080566 -6.6262207 10.70043945 C-7.02195076 7.84141254 -6.7320924 5.77426147 -6 3 C-4.02 2.67 -2.04 2.34 0 2 C0 1.34 0 0.68 0 0 Z " fill="#566A64" transform="translate(99,62)"/>
<path d="M0 0 C0 7.59 0 15.18 0 23 C-3.89919714 24.55967886 -6.82373968 25.46206649 -10.875 26.125 C-11.86242187 26.29257813 -12.84984375 26.46015625 -13.8671875 26.6328125 C-17 27 -17 27 -24 27 C-24 20.07 -24 13.14 -24 6 C-24.99 5.67 -25.98 5.34 -27 5 C-26.01 4.80664062 -25.02 4.61328125 -24 4.4140625 C-15.61642115 2.79241249 -15.61642115 2.79241249 -7.3125 0.8125 C-4 0 -4 0 0 0 Z " fill="#636365" transform="translate(286,73)"/>
<path d="M0 0 C0 7.26 0 14.52 0 22 C1.98 22 3.96 22 6 22 C6 22.33 6 22.66 6 23 C3.77228658 23.50643553 1.54275924 24.0048962 -0.6875 24.5 C-1.92886719 24.7784375 -3.17023438 25.056875 -4.44921875 25.34375 C-7.42398218 25.89354126 -9.99368602 26.13795705 -13 26 C-11.68 25.67 -10.36 25.34 -9 25 C-9 17.08 -9 9.16 -9 1 C-3 0 -3 0 0 0 Z " fill="#888888" transform="translate(295,71)"/>
<path d="M0 0 C1.32 0 2.64 0 4 0 C4 6.93 4 13.86 4 21 C4.99 21.33 5.98 21.66 7 22 C3.37 22 -0.26 22 -4 22 C-2.68 21.34 -1.36 20.68 0 20 C0 13.4 0 6.8 0 0 Z " fill="#898988" transform="translate(258,79)"/>
<path d="M0 0 C-0.875 5.875 -0.875 5.875 -2 7 C-3.69141656 6.91036938 -5.37959602 6.75422324 -7.0625 6.5625 C-8.44115234 6.40974609 -8.44115234 6.40974609 -9.84765625 6.25390625 C-10.55792969 6.17011719 -11.26820313 6.08632813 -12 6 C-12 5.34 -12 4.68 -12 4 C-10.68 4 -9.36 4 -8 4 C-8 3.34 -8 2.68 -8 2 C-4.77208445 -0.1519437 -3.71599191 -0.20086443 0 0 Z " fill="#3F3F3B" transform="translate(393,400)"/>
<path d="M0 0 C1 3 1 3 0 6 C-2.65786497 9.98679745 -4.4604788 10.62193106 -9 12 C-9.99 11.67 -10.98 11.34 -12 11 C-11.67 9.68 -11.34 8.36 -11 7 C-9.35 7.99 -7.7 8.98 -6 10 C-4.8565644 7.79480277 -3.86774078 5.64455335 -3 3.3125 C-2 1 -2 1 0 0 Z " fill="#686864" transform="translate(206,406)"/>
<path d="M0 0 C0 0.99 0 1.98 0 3 C-0.65226562 3.04898437 -1.30453125 3.09796875 -1.9765625 3.1484375 C-5.96604269 3.48972047 -9.50359558 3.83140982 -13.3125 5.125 C-16.33579331 6.10932806 -17.98726522 5.88609847 -21 5 C-17.61645552 3.09260973 -14.27713656 2.23265257 -10.5 1.375 C-9.3759375 1.11460937 -8.251875 0.85421875 -7.09375 0.5859375 C-4 0 -4 0 0 0 Z " fill="#909E98" transform="translate(158,408)"/>
<path d="M0 0 C2.37124458 3.55686688 2.10698812 4.21557807 1.3125 8.25 C0.37964058 12.84113165 -0.94659171 16.79984668 -3 21 C-3.95827504 17.95501389 -3.99431517 15.97726069 -3.22265625 12.890625 C-3.03896484 12.13652344 -2.85527344 11.38242188 -2.66601562 10.60546875 C-2.36727539 9.43951172 -2.36727539 9.43951172 -2.0625 8.25 C-1.86720703 7.45722656 -1.67191406 6.66445312 -1.47070312 5.84765625 C-0.98875921 3.89637115 -0.49547912 1.94789217 0 0 Z M-1 16 C1 17 1 17 1 17 Z " fill="#909C98" transform="translate(404,119)"/>
<path d="M0 0 C0.74362793 0.01047363 1.48725586 0.02094727 2.25341797 0.03173828 C3.46191406 0.04140625 3.46191406 0.04140625 4.69482422 0.05126953 C5.95746094 0.07640625 5.95746094 0.07640625 7.24560547 0.10205078 C8.51984375 0.11558594 8.51984375 0.11558594 9.81982422 0.12939453 C11.9202043 0.15299431 14.02043991 0.18886595 16.12060547 0.22705078 C16.12060547 0.55705078 16.12060547 0.88705078 16.12060547 1.22705078 C9.07738564 2.8200033 3.26410502 3.39811628 -3.87939453 2.22705078 C-1.87939453 0.22705078 -1.87939453 0.22705078 0 0 Z " fill="#313130" transform="translate(327.87939453125,58.77294921875)"/>
<path d="M0 0 C1.49341969 2.98683937 0.40648676 4.95160978 -0.4375 8.125 C-0.72496094 9.22070312 -1.01242187 10.31640625 -1.30859375 11.4453125 C-1.53675781 12.28835938 -1.76492188 13.13140625 -2 14 C-4.32264339 9.99056996 -3.75556305 7.53337828 -3 3 C-3.33 2.34 -3.66 1.68 -4 1 C-2.68 0.67 -1.36 0.34 0 0 Z " fill="#77877F" transform="translate(406,419)"/>
<path d="M0 0 C1.875 0.6875 1.875 0.6875 4 2 C4.68753301 3.65816784 5.35561283 5.32459336 6 7 C6.99 7.33 7.98 7.66 9 8 C2.25 7.25 2.25 7.25 0 5 C-0.125 2.375 -0.125 2.375 0 0 Z " fill="#6D7E75" transform="translate(346,359)"/>
<path d="M0 0 C1 3 1 3 0.25 5.625 C-1 8 -1 8 -4 9 C-6.1875 8.0625 -6.1875 8.0625 -8 7 C-5.69 6.34 -3.38 5.68 -1 5 C-1.33 3.68 -1.66 2.36 -2 1 C-1.34 0.67 -0.68 0.34 0 0 Z " fill="#939E98" transform="translate(410,403)"/>
<path d="M0 0 C0.66 0 1.32 0 2 0 C1.14285714 8.57142857 1.14285714 8.57142857 -1 12 C-1.66 10.35 -2.32 8.7 -3 7 C-2.34 6.67 -1.68 6.34 -1 6 C-0.34227572 2.97065509 -0.34227572 2.97065509 0 0 Z " fill="#7B8883" transform="translate(453,220)"/>
<path d="M0 0 C1.73684533 3.47369066 2.30084112 5.07619937 2.625 8.75 C2.69976562 9.54921875 2.77453125 10.3484375 2.8515625 11.171875 C2.90054688 11.77515625 2.94953125 12.3784375 3 13 C2.67 12.01 2.34 11.02 2 10 C1.01 9.67 0.02 9.34 -1 9 C-0.67 6.03 -0.34 3.06 0 0 Z " fill="#828F88" transform="translate(123,150)"/>
<path d="M0 0 C0.66 0 1.32 0 2 0 C2 0.66 2 1.32 2 2 C2.99 2 3.98 2 5 2 C5 1.34 5 0.68 5 0 C7.31 0.33 9.62 0.66 12 1 C12 1.33 12 1.66 12 2 C8.04 2.66 4.08 3.32 0 4 C0 2.68 0 1.36 0 0 Z " fill="#6B6A69" transform="translate(139,402)"/>
<path d="M0 0 C0.33 0 0.66 0 1 0 C1.75 3.1875 1.75 3.1875 2 7 C0.0625 9.9375 0.0625 9.9375 -2 12 C-1 3.42857143 -1 3.42857143 0 0 Z " fill="#9BA6A1" transform="translate(411,90)"/>
<path d="M0 0 C0.78375 0.04125 1.5675 0.0825 2.375 0.125 C2.045 2.105 1.715 4.085 1.375 6.125 C-0.625 4.79166667 -2.625 3.45833333 -4.625 2.125 C-2.625 0.125 -2.625 0.125 0 0 Z " fill="#565657" transform="translate(390.625,399.875)"/>
<path d="M0 0 C2 2 2 2 4 5 C3.625 8.6875 3.625 8.6875 3 12 C0.60926555 8.17482487 0.44033448 4.40334476 0 0 Z " fill="#777876" transform="translate(307,379)"/>
<path d="M0 0 C1.45606519 4.52092968 0.27032841 7.51648796 -1 12 C-3 9 -3 9 -3 7 C-2.34 7 -1.68 7 -1 7 C-1.33 5.35 -1.66 3.7 -2 2 C-1.34 2 -0.68 2 0 2 C0 1.34 0 0.68 0 0 Z " fill="#84968E" transform="translate(445,257)"/>
<path d="M0 0 C0.66 1.32 1.32 2.64 2 4 C-0.97 3.01 -3.94 2.02 -7 1 C-7 0.67 -7 0.34 -7 0 C-2.25 -1.125 -2.25 -1.125 0 0 Z " fill="#909091" transform="translate(324,77)"/>
<path d="M0 0 C3.3 0 6.6 0 10 0 C10 0.99 10 1.98 10 3 C6.7 2.34 3.4 1.68 0 1 C0 0.67 0 0.34 0 0 Z " fill="#313130" transform="translate(181,59)"/>
<path d="M0 0 C0.99 0 1.98 0 3 0 C2.34 3.63 1.68 7.26 1 11 C-1 7 -1 7 -1 5 C-0.34 5 0.32 5 1 5 C0.67 3.35 0.34 1.7 0 0 Z " fill="#92A39B" transform="translate(483,93)"/>
<path d="M0 0 C2.31 0.33 4.62 0.66 7 1 C7 1.66 7 2.32 7 3 C7.66 3.33 8.32 3.66 9 4 C8.34 4 7.68 4 7 4 C6.67 4.99 6.34 5.98 6 7 C5.67 5.35 5.34 3.7 5 2 C4.01 2.33 3.02 2.66 2 3 C2 2.34 2 1.68 2 1 C1.34 0.67 0.68 0.34 0 0 Z " fill="#7B8883" transform="translate(462,73)"/>
<path d="M0 0 C2.475 0.495 2.475 0.495 5 1 C5.33 2.98 5.66 4.96 6 7 C5.34 7 4.68 7 4 7 C3.67 7.66 3.34 8.32 3 9 C3.0928125 7.329375 3.0928125 7.329375 3.1875 5.625 C3.125625 4.42875 3.06375 3.2325 3 2 C2.01 1.34 1.02 0.68 0 0 Z " fill="#9BA7A3" transform="translate(400,377)"/>
<path d="M0 0 C1.04005702 3.38018531 1.08004482 6.4780279 1 10 C0.01 10.33 -0.98 10.66 -2 11 C-1.125 3.375 -1.125 3.375 0 0 Z " fill="#A0AAA6" transform="translate(383,208)"/>
<path d="" fill="#FFFFFF" transform="translate(0,0)"/>
<path d="" fill="#FFFFFF" transform="translate(0,0)"/>
<path d="" fill="#FFFFFF" transform="translate(0,0)"/>
<path d="" fill="#FFFFFF" transform="translate(0,0)"/>
<path d="" fill="#FFFFFF" transform="translate(0,0)"/>
<path d="" fill="#FFFFFF" transform="translate(0,0)"/>
<path d="" fill="#FFFFFF" transform="translate(0,0)"/>
<path d="" fill="#FFFFFF" transform="translate(0,0)"/>
<path d="" fill="#FFFFFF" transform="translate(0,0)"/>
<path d="" fill="#FFFFFF" transform="translate(0,0)"/>
<path d="" fill="#FFFFFF" transform="translate(0,0)"/>
<path d="" fill="#FFFFFF" transform="translate(0,0)"/>
<path d="" fill="#FFFFFF" transform="translate(0,0)"/>
<path d="" fill="#FFFFFF" transform="translate(0,0)"/>
<path d="" fill="#FFFFFF" transform="translate(0,0)"/>
<path d="" fill="#FFFFFF" transform="translate(0,0)"/>
<path d="" fill="#FFFFFF" transform="translate(0,0)"/>
<path d="" fill="#FFFFFF" transform="translate(0,0)"/>
<path d="" fill="#FFFFFF" transform="translate(0,0)"/>
<path d="" fill="#FFFFFF" transform="translate(0,0)"/>
<path d="" fill="#FFFFFF" transform="translate(0,0)"/>
<path d="" fill="#FFFFFF" transform="translate(0,0)"/>
<path d="" fill="#FEFFFF" transform="translate(0,0)"/>
<path d="" fill="#FFFFFF" transform="translate(0,0)"/>
<path d="" fill="#FFFFFF" transform="translate(0,0)"/>
<path d="" fill="#FFFFFF" transform="translate(0,0)"/>
<path d="" fill="#FFFFFF" transform="translate(0,0)"/>
<path d="" fill="#FFFFFF" transform="translate(0,0)"/>
<path d="" fill="#FFFFFF" transform="translate(0,0)"/>
<path d="" fill="#FFFFFF" transform="translate(0,0)"/>
<path d="" fill="#FFFFFF" transform="translate(0,0)"/>
<path d="" fill="#FFFFFF" transform="translate(0,0)"/>
<path d="" fill="#FFFFFF" transform="translate(0,0)"/>
<path d="" fill="#FFFFFF" transform="translate(0,0)"/>
<path d="" fill="#FFFFFF" transform="translate(0,0)"/>
<path d="" fill="#FFFFFF" transform="translate(0,0)"/>
</svg>
